<?xml version="1.0" encoding="UTF-8"?>
<svg version="1.1" xmlns="http://www.w3.org/2000/svg" width="2216" height="356">
<path d="M0 0 C0.9839122 -0.00832352 0.9839122 -0.00832352 1.98770142 -0.01681519 C4.14490003 -0.02857696 6.29998124 -0.00437672 8.45703125 0.02148438 C9.96248275 0.02319654 11.46793723 0.02312872 12.97338867 0.0213623 C16.12415198 0.02301355 19.27420206 0.041674 22.42480469 0.07324219 C26.45667423 0.11291993 30.48761032 0.11728638 34.51963806 0.10977936 C37.62699891 0.10670489 40.73415121 0.11884698 43.84146118 0.13591003 C45.32775565 0.14292458 46.81407375 0.14606644 48.30038452 0.1452179 C50.38037557 0.1470225 52.45926315 0.16845804 54.5390625 0.1953125 C55.72089111 0.20373169 56.90271973 0.21215088 58.12036133 0.2208252 C61.61705258 0.65875873 63.47809281 1.49382319 66.26953125 3.61523438 C67.73339446 6.00439377 68.92866288 8.22888186 70.08984375 10.75585938 C70.43007065 11.46563431 70.77029755 12.17540924 71.12083435 12.9066925 C72.22578606 15.21996363 73.31014434 17.54226189 74.39453125 19.86523438 C75.16003745 21.47776874 75.92689298 23.0896632 76.69506836 24.70092773 C78.21457327 27.89330645 79.7264357 31.08910715 81.23095703 34.28857422 C83.31899485 38.72714398 85.44289429 43.14787311 87.57397461 47.56591797 C91.04929985 54.78094406 94.46526372 62.02371877 97.86328125 69.27539062 C99.18589598 72.09714687 100.50877834 74.91877734 101.83203125 77.74023438 C102.16609985 78.4525824 102.50016846 79.16493042 102.84436035 79.89886475 C109.42893302 93.92743276 116.1945491 107.86476765 122.99328613 121.79051208 C123.35772827 122.53704544 123.72217041 123.2835788 124.09765625 124.05273438 C124.45597534 124.78665909 124.81429443 125.5205838 125.18347168 126.27674866 C129.6559342 135.44551558 134.05306959 144.65019209 138.43188477 153.86401367 C139.0326985 155.12010138 139.64683815 156.36984817 140.26953125 157.61523438 C140.27311378 156.47167134 140.27311378 156.47167134 140.27676868 155.30500603 C140.3359146 136.75142724 140.41146208 118.19798153 140.50524616 99.6445446 C140.55020436 90.67222137 140.58961898 81.69993784 140.6159668 72.72753906 C140.63894668 64.90684285 140.67234459 57.08627225 140.71823281 49.26567566 C140.7421652 45.12503391 140.76089386 40.98451656 140.76714516 36.84380722 C140.77319597 32.94495793 140.79319549 29.04642696 140.82380676 25.14769554 C140.83258707 23.71828739 140.83630957 22.28883763 140.83453941 20.85940361 C140.83288276 18.90402497 140.85137716 16.94866052 140.87080383 14.99337769 C140.8754128 13.90013121 140.88002176 12.80688473 140.88477039 11.68050957 C141.33571693 8.08795277 142.389758 5.69776357 144.26953125 2.61523438 C147.49013616 0.46816443 148.40332046 0.35448254 152.12060547 0.30883789 C153.10527802 0.29285049 154.08995056 0.2768631 155.10446167 0.26039124 C156.16698151 0.25502853 157.22950134 0.24966583 158.32421875 0.24414062 C159.9647673 0.23059792 159.9647673 0.23059792 161.63845825 0.21678162 C163.95344296 0.20226641 166.26846882 0.19338924 168.58349609 0.18969727 C172.12407627 0.17780309 175.66291288 0.12862907 179.203125 0.078125 C181.4518144 0.06866073 183.70051452 0.06142572 185.94921875 0.05664062 C187.00769012 0.03710831 188.0661615 0.01757599 189.15670776 -0.00254822 C190.14768463 0.00352951 191.1386615 0.00960724 192.15966797 0.01586914 C193.4618074 0.00826317 193.4618074 0.00826317 194.79025269 0.00050354 C198.54567639 0.93165133 199.89732237 2.57661942 202.26953125 5.61523438 C203.00191244 8.77764038 202.9446986 11.86960995 202.90444946 15.10437012 C202.91224942 16.06474922 202.92004937 17.02512832 202.92808568 18.01460981 C202.94804274 21.23538954 202.93222603 24.45499258 202.91650391 27.67578125 C202.92327834 29.98365469 202.93218049 32.29152273 202.9430542 34.59938049 C202.96587444 40.87001578 202.95699962 47.14024036 202.94115877 53.41088295 C202.92851407 59.96822861 202.94023592 66.52553873 202.9480896 73.08288574 C202.95877362 84.80123918 202.94221955 96.51941961 202.91679291 108.23774308 C202.89445413 118.86187584 202.89833429 129.48573545 202.92138672 140.10986328 C202.94814664 152.44842493 202.95810323 164.7868124 202.9433254 177.12539911 C202.93552374 183.65645565 202.93450917 190.18732402 202.95100784 196.71836853 C202.96543399 202.85804443 202.95546402 208.99720367 202.92653656 215.13682365 C202.91991593 217.39229918 202.92183997 219.64781807 202.93284988 221.90327644 C202.94647768 224.97814074 202.92942186 228.0513409 202.90444946 231.12609863 C202.91560307 232.02249668 202.92675668 232.91889472 202.93824828 233.84245634 C202.8686124 238.25103553 202.70261066 240.05725133 199.91734886 243.64580536 C195.95193051 246.59525699 193.05652961 246.74632351 188.2409668 246.77636719 C186.99925217 246.78597473 185.75753754 246.79558228 184.47819519 246.80548096 C183.120882 246.81032944 181.76356667 246.81460814 180.40625 246.81835938 C179.0124359 246.82411401 177.61862181 246.8298717 176.22480774 246.83563232 C173.30196769 246.846134 170.37915508 246.85198189 167.45629883 246.85546875 C163.72051353 246.86094733 159.98509384 246.88496483 156.24942303 246.9134407 C153.36941996 246.93211423 150.48950406 246.93727521 147.60944557 246.93880463 C146.2327964 246.94182181 144.85614842 246.9498187 143.47955894 246.96298981 C141.54853976 246.98014466 139.61736913 246.97631166 137.6862793 246.97167969 C136.58946335 246.97532532 135.4926474 246.97897095 134.3625946 246.98272705 C129.54207998 246.40999264 126.26636804 244.84428883 123.20703125 241.07226562 C120.68496663 236.57221081 118.45601221 231.97351077 116.26953125 227.30273438 C115.28935286 225.23098239 114.30887375 223.15937266 113.328125 221.08789062 C112.82394043 220.01941895 112.31975586 218.95094727 111.80029297 217.85009766 C109.333021 212.63616566 106.83178821 207.4386484 104.33203125 202.24023438 C103.3176448 200.12698362 102.30332213 198.01370225 101.2890625 195.90039062 C99.33129642 191.82333491 97.37019168 187.74791229 95.40625 183.67382812 C91.12010836 174.77459244 86.84785112 165.86986538 82.66015625 156.92382812 C82.34617386 156.253284 82.03219147 155.58273987 81.70869446 154.89187622 C81.38950546 154.21019379 81.07031647 153.52851135 80.74145508 152.82617188 C80.08417438 151.42251329 79.42686622 150.01886755 78.76953125 148.61523438 C78.44423431 147.92042969 78.11893738 147.225625 77.78378296 146.50976562 C70.90649357 131.83596711 63.80241443 117.27490648 56.65625 102.73046875 C56.23810532 101.87791 55.81996063 101.02535126 55.3891449 100.1469574 C54.60233037 98.54314145 53.81389285 96.94012037 53.02357483 95.33802795 C51.61017456 92.45631652 50.28585411 89.66420295 49.26953125 86.61523438 C49.26806469 87.41037571 49.26659813 88.20551704 49.26508713 89.02475357 C49.22805393 108.36209615 49.16908568 127.69925755 49.08562851 147.03645706 C49.04579972 156.38775169 49.01342678 165.7389617 48.99853516 175.09033203 C48.98553849 183.23990899 48.95862484 191.38930006 48.91491818 199.53877234 C48.89225849 203.85488523 48.87662325 208.17076846 48.8776474 212.48694611 C48.87839137 216.54837073 48.8605474 220.60928682 48.82836342 224.67057991 C48.81983528 226.16210423 48.81813421 227.65368541 48.82372856 229.14522362 C48.83034501 231.18011114 48.81012861 233.21503342 48.78851318 235.24981689 C48.78298243 236.95882109 48.78298243 236.95882109 48.77733994 238.70235062 C48.15517145 242.27122313 47.10367707 243.42602144 44.26953125 245.61523438 C41.45772897 246.5525018 39.6983095 246.75136514 36.78564453 246.77636719 C35.88105499 246.78597473 34.97646545 246.79558228 34.04446411 246.80548096 C33.06943939 246.80973083 32.09441467 246.81398071 31.08984375 246.81835938 C29.58247147 246.82690948 29.58247147 246.82690948 28.04464722 246.83563232 C25.91795911 246.84508015 23.79125638 246.85161544 21.66455078 246.85546875 C18.41412792 246.86517585 15.16433699 246.89620223 11.9140625 246.92773438 C9.84766 246.93426443 7.78125299 246.93951489 5.71484375 246.94335938 C4.25837936 246.96187958 4.25837936 246.96187958 2.77249146 246.98077393 C-3.54137847 246.95997178 -7.14013577 246.20556735 -11.73046875 241.61523438 C-11.93521881 238.5306816 -12.01282295 235.53517092 -12.00462341 232.44889832 C-12.01247843 231.00604925 -12.01247843 231.00604925 -12.02049214 229.53405172 C-12.03556966 226.29048209 -12.03619899 223.04706914 -12.03686523 219.8034668 C-12.04448155 217.48618806 -12.05290812 215.16891186 -12.06208801 212.85163879 C-12.0840929 206.54170056 -12.09284003 200.2318108 -12.09791446 193.92183852 C-12.10155118 189.98295941 -12.10778767 186.04409313 -12.11491585 182.10521889 C-12.13437979 171.20291275 -12.15088743 160.3006197 -12.15379238 149.3982954 C-12.15397995 148.7002672 -12.15416752 148.002239 -12.15436077 147.28305842 C-12.15472703 145.86793315 -12.15509073 144.45280789 -12.15545189 143.03768262 C-12.1556347 142.33519608 -12.15581751 141.63270955 -12.15600586 140.90893555 C-12.15618641 140.20559302 -12.15636696 139.50225048 -12.15655298 138.77759454 C-12.16009472 127.38052856 -12.18711523 115.98365151 -12.22450375 104.58665105 C-12.26256932 92.88979194 -12.28150848 81.19303568 -12.28225189 69.4961136 C-12.28304646 62.92697309 -12.29186728 56.35807616 -12.32024956 49.78899193 C-12.3463443 43.6108311 -12.34868323 37.43311726 -12.33259392 31.25492668 C-12.33077254 28.98492207 -12.33753177 26.71489227 -12.35341263 24.44494247 C-12.37374638 21.35026731 -12.36339541 18.25717469 -12.34519958 15.16252136 C-12.35839955 14.26018601 -12.37159952 13.35785066 -12.38519949 12.42817181 C-12.32561702 8.00392535 -12.1592792 6.1752128 -9.38887119 2.55737019 C-6.03606142 0.10792468 -4.12950729 -0.00717857 0 0 Z " fill="#D2AE6D" transform="translate(2013.73046875,106.384765625)"/>
<path d="M0 0 C35.51709006 -0.76236178 69.8984993 10.64373921 95.9699707 35.09130859 C119.25247315 57.42775083 132.38213672 88.2321106 133.296875 120.484375 C133.68320273 149.79606897 127.83059716 178.16260058 110.09375 202.12109375 C109.49046875 202.94738281 108.8871875 203.77367187 108.265625 204.625 C86.91979291 232.56292729 57.00418923 247.23121617 22.79882812 252.64233398 C6.08394384 254.80218428 -12.5405401 254.23841634 -28.90625 250.12109375 C-30.10701172 249.82307861 -30.10701172 249.82307861 -31.33203125 249.51904297 C-63.81225739 241.19317855 -90.6272423 221.87622453 -108.08837891 193.17822266 C-114.46443498 182.34762555 -118.76169568 171.27217573 -121.90625 159.12109375 C-122.17308594 158.12601807 -122.17308594 158.12601807 -122.4453125 157.11083984 C-130.82945804 124.48087659 -124.17697682 88.257861 -107.7331543 59.33813477 C-104.02433372 53.06665364 -99.87582653 47.46259719 -94.90625 42.12109375 C-94.44412109 41.61271973 -93.98199219 41.1043457 -93.50585938 40.58056641 C-70.83018918 15.81712972 -39.00613366 2.1331657 -5.625 0.2109375 C-3.74970577 0.14896657 -1.87469127 0.07811214 0 0 Z M-46.87890625 77.71875 C-61.95360049 95.58182698 -64.37347114 116.60291735 -62.90625 139.12109375 C-61.21547325 153.08896899 -55.14021664 165.60463174 -45.90625 176.12109375 C-45.03226563 177.13623047 -45.03226563 177.13623047 -44.140625 178.171875 C-34.30905502 188.80897278 -20.0246964 196.24233063 -5.46533203 197.2980957 C16.24865526 197.81964698 34.58834727 194.90001138 50.98364258 179.37402344 C65.32528252 165.16484197 71.29906313 146.4921331 71.46875 126.62109375 C71.29354343 106.10367421 64.83627306 89.18351281 51.078125 73.87890625 C38.93377513 61.96631878 21.08630159 56.3626626 4.40625 55.93359375 C-15.39560152 56.23591209 -33.18820337 63.23581838 -46.87890625 77.71875 Z " fill="#1F4D53" transform="translate(829.90625,102.87890625)"/>
<path d="M0 0 C19.52541951 18.47596273 30.56411719 43.39656715 35.26171875 69.55078125 C35.44734375 70.55367188 35.63296875 71.5565625 35.82421875 72.58984375 C37.63992773 89.02849474 37.42087543 106.48770032 33.26171875 122.55078125 C32.97965576 123.70634521 32.97965576 123.70634521 32.69189453 124.88525391 C28.02913889 143.6215934 19.73569385 159.82942881 7.26171875 174.55078125 C6.59527344 175.36804688 5.92882813 176.1853125 5.2421875 177.02734375 C-11.28117677 196.61308307 -35.31115473 208.4076064 -59.73828125 214.55078125 C-60.4540332 214.73157227 -61.16978516 214.91236328 -61.90722656 215.09863281 C-82.21955422 219.94775517 -105.49120781 219.51639327 -125.73828125 214.55078125 C-126.42567383 214.38980957 -127.11306641 214.22883789 -127.82128906 214.06298828 C-152.6716058 208.08305769 -176.55028541 194.51941306 -192.73828125 174.55078125 C-193.43824219 173.68839844 -194.13820313 172.82601562 -194.859375 171.9375 C-207.22366952 156.10177443 -215.76689663 138.30250211 -219.73828125 118.55078125 C-219.94324219 117.59300781 -220.14820313 116.63523438 -220.359375 115.6484375 C-226.27077019 82.66692918 -219.89385001 46.64005093 -201.0234375 18.80078125 C-180.87362227 -9.85673374 -151.88194795 -27.5364537 -117.48828125 -33.69921875 C-73.82991334 -40.01270715 -32.96758423 -29.48741129 0 0 Z M-143.12109375 41.58984375 C-157.52084413 59.05041064 -161.18595804 79.55029014 -159.73828125 101.55078125 C-157.83666484 119.68770339 -148.81967166 136.96677249 -134.73828125 148.55078125 C-117.76332036 160.53280628 -98.35320438 163.89722938 -77.9765625 161.01953125 C-75.15347105 160.34051318 -72.47062931 159.52934311 -69.73828125 158.55078125 C-68.89652344 158.28394531 -68.05476563 158.01710938 -67.1875 157.7421875 C-51.71436184 152.32779234 -39.75602462 139.9058587 -32.61083984 125.46386719 C-23.7717377 106.08412336 -22.4517295 82.65083578 -29.73828125 62.55078125 C-32.95305183 54.66671853 -37.14329728 47.95213763 -42.73828125 41.55078125 C-43.24746094 40.9475 -43.75664063 40.34421875 -44.28125 39.72265625 C-55.40076519 27.53237293 -72.24553947 21.23821254 -88.4296875 20.34765625 C-109.4042057 20.09367621 -128.38584065 26.00854741 -143.12109375 41.58984375 Z " fill="#D2AE6D" transform="translate(1932.73828125,138.44921875)"/>
<path d="M0 0 C0.6776107 -0.00453111 1.35522141 -0.00906223 2.05336577 -0.01373065 C4.32882336 -0.02641281 6.60404278 -0.02475186 8.87953186 -0.02310181 C10.50893462 -0.02908464 12.13833454 -0.03588962 13.76773071 -0.04345703 C18.19744755 -0.0611481 22.62708715 -0.06581368 27.05683589 -0.0670886 C30.75230083 -0.06898603 34.44774771 -0.07634167 38.1432057 -0.08343279 C46.8600112 -0.09972576 55.57677538 -0.10460088 64.29359436 -0.10317993 C73.29195525 -0.10197789 82.29007652 -0.1230901 91.28837675 -0.15466726 C99.00904183 -0.18079756 106.72962849 -0.19154861 114.45033747 -0.19026911 C119.0637784 -0.18975857 123.6770064 -0.19549263 128.29040337 -0.21662521 C132.6283901 -0.23595336 136.96595957 -0.23616954 141.3039608 -0.22159195 C142.89710853 -0.21949606 144.49028202 -0.22425105 146.08338547 -0.23631287 C148.25652391 -0.25170219 150.42821217 -0.24250133 152.60131836 -0.22705078 C153.81787581 -0.22814032 155.03443327 -0.22922985 156.2878561 -0.2303524 C159.96321679 0.36436089 161.10090934 1.37720892 163.364151 4.26742554 C165.06518768 7.6694989 164.52735372 11.54787134 164.53211975 15.29086304 C164.53544815 16.18858429 164.53877655 17.08630554 164.54220581 18.01123047 C164.54727396 19.91270433 164.54961417 21.81418711 164.54945374 23.71566772 C164.55163694 26.62369487 164.56978471 29.53134073 164.58876038 32.43930054 C164.59169497 34.2856534 164.59367933 36.13200808 164.59461975 37.97836304 C164.60180527 38.84826874 164.60899078 39.71817444 164.61639404 40.61444092 C164.61331741 41.42853424 164.61024078 42.24262756 164.60707092 43.08139038 C164.60849594 43.79483612 164.60992096 44.50828186 164.61138916 45.24334717 C164.31609015 47.66088797 163.65961399 49.20831571 162.364151 51.26742554 C159.19239891 53.38192693 158.45036413 53.51619683 154.82736206 53.50793457 C153.89768112 53.5106839 152.96800018 53.51343323 152.01014709 53.51626587 C150.99235168 53.50907532 149.97455627 53.50188477 148.92591858 53.49447632 C147.31592232 53.4949144 147.31592232 53.4949144 145.67340088 53.49536133 C142.11841301 53.49396571 138.5636336 53.47839341 135.00868225 53.46273804 C132.54674392 53.45900874 130.08480411 53.45616137 127.62286377 53.4541626 C121.13731298 53.44651963 114.65185151 53.42686537 108.16633606 53.40475464 C101.55064604 53.38431054 94.93494162 53.37516395 88.31922913 53.36508179 C75.33415749 53.34362015 62.34917564 53.30843254 49.364151 53.26742554 C49.364151 67.45742554 49.364151 81.64742554 49.364151 96.26742554 C56.38051819 96.24422241 63.39688538 96.22101929 70.62586975 96.19711304 C75.06923282 96.18689473 79.51258142 96.17726683 83.95594788 96.16976929 C91.00960801 96.15781089 98.06321626 96.1436595 105.11683655 96.11654663 C110.80320619 96.09482586 116.48952019 96.08285848 122.17592812 96.07767105 C124.34606108 96.07397393 126.51619098 96.06675447 128.68630028 96.05596542 C131.72441073 96.04146084 134.76229083 96.03944718 137.8004303 96.04037476 C138.69882629 96.0331842 139.59722229 96.02599365 140.52284241 96.01858521 C145.74018068 96.03583699 149.86067609 96.30040953 154.114151 99.64242554 C157.04479598 103.452264 156.53936576 108.24509402 156.567276 112.84945679 C156.57297607 113.58186081 156.57867615 114.31426483 156.58454895 115.06886292 C156.59397581 116.61623704 156.60052372 118.16363103 156.60438538 119.71102905 C156.61407533 122.06157023 156.64511279 124.41123051 156.676651 126.76156616 C156.6831836 128.27002455 156.68843306 129.77848915 156.692276 131.28695679 C156.7046228 131.98198807 156.7169696 132.67701935 156.72969055 133.39311218 C156.70679201 138.48438724 155.86416887 141.90601834 153.364151 146.26742554 C148.78303652 148.96153751 143.85561615 148.53524721 138.70863342 148.49447632 C137.7422998 148.49476837 136.77596619 148.49506042 135.78034973 148.49536133 C132.5933477 148.49397046 129.40658084 148.47842052 126.21961975 148.46273804 C124.00716276 148.45900705 121.79470411 148.45616048 119.58224487 148.4541626 C113.76417973 148.44653293 107.94621472 148.42689006 102.12818909 148.40475464 C95.14477355 148.38068129 88.1613245 148.37151206 81.17787933 148.35984802 C70.57323362 148.34046538 59.96880754 148.302138 49.364151 148.26742554 C49.364151 162.78742554 49.364151 177.30742554 49.364151 192.26742554 C54.23233582 192.24385986 54.23233582 192.24385986 59.1988678 192.21981812 C69.91569677 192.17013341 80.6325308 192.13698097 91.34944439 192.11198902 C97.84781671 192.09632581 104.34607114 192.07507524 110.84437561 192.04110718 C117.11429823 192.00853761 123.38410737 191.99057746 129.65410805 191.98279381 C132.04753722 191.97724602 134.44096012 191.96641272 136.83434105 191.95023537 C140.18385164 191.9284935 143.53289187 191.92545732 146.88246155 191.92684937 C147.87436493 191.91606354 148.86626831 191.90527771 149.88822937 191.89416504 C158.42152783 191.93260015 158.42152783 191.93260015 162.364151 195.26742554 C164.39587366 198.31500952 164.6185562 198.95185275 164.65467834 202.38412476 C164.66743805 203.20863129 164.68019775 204.03313782 164.69334412 204.88262939 C164.69556976 205.770159 164.69779541 206.6576886 164.7000885 207.57211304 C164.7100737 208.94630905 164.7100737 208.94630905 164.72026062 210.3482666 C164.73038645 212.28663119 164.73507766 214.22503063 164.73475647 216.16342163 C164.7391245 219.12445787 164.77543009 222.08399733 164.81336975 225.04476929 C164.819239 226.92887878 164.82320767 228.81299534 164.8250885 230.69711304 C164.83945953 231.58059418 164.85383057 232.46407532 164.86863708 233.37432861 C164.83845915 237.44894238 164.68263916 239.72390621 162.58534241 243.30307007 C158.70855806 246.73158258 154.88955853 246.39503543 149.84928894 246.40786743 C149.19673626 246.41083855 148.54418358 246.41380968 147.87185657 246.41687083 C145.6871461 246.42553647 143.50249057 246.42706425 141.31776428 246.42855835 C139.75057356 246.43318797 138.18338397 246.43821283 136.61619568 246.44360352 C132.3599675 246.45671414 128.10375508 246.46316966 123.84750986 246.46761417 C121.18805511 246.47054658 118.52860466 246.47465167 115.86915207 246.47911835 C107.54722747 246.49278869 99.2253127 246.50245806 90.90337765 246.50632024 C81.29862973 246.51080239 71.69402402 246.5283595 62.08931935 246.55732083 C54.66330108 246.57893528 47.23732284 246.58902436 39.81127346 246.59036136 C35.37666599 246.5914094 30.94219229 246.59731719 26.50761795 246.61518097 C22.33629232 246.63165795 18.16520109 246.63381903 13.99385452 246.62504196 C12.46443555 246.62427143 10.93500399 246.62861646 9.40561676 246.63850021 C7.31445944 246.65122015 5.22413231 246.6453436 3.13298035 246.63491821 C1.37922687 246.63711805 1.37922687 246.63711805 -0.40995598 246.63936234 C-4.09950398 246.21396736 -6.48339213 245.20949256 -9.635849 243.26742554 C-11.66249187 240.22746123 -11.88596816 239.66102581 -11.88753128 236.25499058 C-11.89274678 235.43636966 -11.89796227 234.61774875 -11.90333581 233.77432114 C-11.89887437 232.87530624 -11.89441292 231.97629134 -11.88981628 231.05003357 C-11.89293627 230.09474131 -11.89605625 229.13944904 -11.89927077 228.15520853 C-11.90727618 224.94002946 -11.90091718 221.7250378 -11.89463806 218.50985718 C-11.89734681 216.21051421 -11.90090709 213.91117211 -11.90525818 211.61183167 C-11.91439876 205.35572038 -11.91083091 199.09967484 -11.90450001 192.84356236 C-11.89944803 186.30576601 -11.90412928 179.7679754 -11.90727234 173.23017883 C-11.91154852 161.54442521 -11.90491929 149.85869932 -11.89475366 138.1729505 C-11.88581998 127.57527692 -11.88736809 116.97764715 -11.89659119 106.37997437 C-11.90729208 94.07846827 -11.91127922 81.77699013 -11.90536666 69.47548002 C-11.90224434 62.96180795 -11.90184476 56.44816607 -11.90843964 49.93449593 C-11.91420634 43.81060461 -11.91022853 37.68679623 -11.89865112 31.56291389 C-11.89600081 29.31185036 -11.89677592 27.06077988 -11.90117645 24.80971909 C-11.90661871 21.74365139 -11.89981367 18.67785165 -11.88981628 15.61180115 C-11.89650845 14.26662488 -11.89650845 14.26662488 -11.90333581 12.89427334 C-11.89812032 12.07304468 -11.89290482 11.25181602 -11.88753128 10.40570164 C-11.88720658 9.69801028 -11.88688187 8.99031892 -11.88654733 8.26118237 C-11.58494287 5.86257862 -10.9199174 4.31264883 -9.635849 2.26742554 C-6.00563455 -0.15271743 -4.32333983 0.01191475 0 0 Z " fill="#D2AE6D" transform="translate(11.635848999023438,106.73257446289063)"/>
<path d="M0 0 C1.51188148 -0.01902626 1.51188148 -0.01902626 3.05430603 -0.03843689 C4.1418367 -0.03550125 5.22936737 -0.03256561 6.34985352 -0.02954102 C8.02725365 -0.03740379 8.02725365 -0.03740379 9.73854065 -0.04542542 C12.10481943 -0.05185241 14.47113013 -0.05049992 16.83740234 -0.04199219 C20.46127161 -0.0334883 24.0835622 -0.06222662 27.70727539 -0.09399414 C30.00480096 -0.09560633 32.30232932 -0.09502829 34.59985352 -0.09204102 C36.22811317 -0.10889198 36.22811317 -0.10889198 37.88926697 -0.12608337 C38.90034012 -0.11670242 39.91141327 -0.10732147 40.953125 -0.09765625 C42.28524269 -0.097407 42.28524269 -0.097407 43.64427185 -0.09715271 C46.81009509 0.56481468 48.0007472 1.95514137 50.04125977 4.40405273 C51.40864215 7.1388175 51.17224377 9.30974909 51.17929077 12.37228394 C51.18474411 13.64505692 51.19019745 14.9178299 51.19581604 16.22917175 C51.19693593 17.64797969 51.19798644 19.06678767 51.19897461 20.4855957 C51.203642 21.97379202 51.20878544 23.4619869 51.21437073 24.95018005 C51.22566448 28.16135398 51.23409283 31.37251855 51.24048996 34.5837059 C51.25117028 39.66994428 51.27141865 44.75611611 51.29360962 49.84231567 C51.35552164 64.30817592 51.40943673 78.77403353 51.44262695 93.23999023 C51.46102764 101.22482043 51.49003776 109.20954031 51.53063166 117.19428933 C51.55162284 121.41670291 51.56714755 125.63897789 51.56943893 129.86144638 C51.57160152 133.84239831 51.58763321 137.82306243 51.61382866 141.80392647 C51.62096416 143.25662329 51.62315091 144.7093552 51.61972618 146.16206551 C51.59264132 159.84838076 53.00515298 173.24262654 63.04516602 183.43920898 C73.46980074 192.22275631 84.70102532 193.49437203 97.86791992 192.6315918 C106.95425493 191.68029274 114.6632863 187.19992367 120.76000977 180.52124023 C126.55675748 173.27530559 129.15439978 165.34194768 129.1860199 156.11024475 C129.1929184 154.81619217 129.19981689 153.52213959 129.20692444 152.18887329 C129.20963891 150.75677504 129.21227608 149.32467664 129.21484375 147.89257812 C129.22115077 146.38287669 129.22791674 144.8731771 129.23510742 143.36347961 C129.24976596 140.11358591 129.26149524 136.86369934 129.27105522 133.6137867 C129.28651533 128.47470359 129.31046376 123.3356819 129.33595276 118.19664001 C129.40713726 103.58360677 129.46696122 88.97053869 129.51806641 74.35742188 C129.54636934 66.28586892 129.5817481 58.21437745 129.62472016 50.14288896 C129.65148898 45.03454723 129.66939615 39.92627501 129.6807574 34.81787694 C129.68988518 31.63928659 129.70724757 28.46078074 129.72693634 25.28223991 C129.7344075 23.80886031 129.73849264 22.33545903 129.73893166 20.86206055 C129.74001544 18.84962962 129.75443594 16.83721908 129.76951599 14.82484436 C129.77374793 13.69899964 129.77797987 12.57315493 129.78234005 11.4131937 C130.1115077 7.5876377 131.08090756 4.70921133 133.3563385 1.61680603 C135.64686913 -0.03184583 137.19054017 0.01710781 140 0 C141.00792099 -0.01268417 142.01584198 -0.02536835 143.05430603 -0.03843689 C144.1418367 -0.03550125 145.22936737 -0.03256561 146.34985352 -0.02954102 C148.02725365 -0.03740379 148.02725365 -0.03740379 149.73854065 -0.04542542 C152.10481943 -0.05185241 154.47113013 -0.05049992 156.83740234 -0.04199219 C160.46127161 -0.0334883 164.0835622 -0.06222662 167.70727539 -0.09399414 C170.00480096 -0.09560633 172.30232932 -0.09502829 174.59985352 -0.09204102 C176.22811317 -0.10889198 176.22811317 -0.10889198 177.88926697 -0.12608337 C178.90034012 -0.11670242 179.91141327 -0.10732147 180.953125 -0.09765625 C182.28524269 -0.097407 182.28524269 -0.097407 183.64427185 -0.09715271 C186.85887962 0.57501543 188.03266667 1.84952542 190.04125977 4.40405273 C191.20017662 7.78568724 191.16957157 11.02595193 191.17497253 14.57914734 C191.18137001 16.4815921 191.18137001 16.4815921 191.18789673 18.42247009 C191.1875472 19.82608035 191.18708566 21.22969059 191.18652344 22.63330078 C191.1895163 24.11367884 191.19291913 25.59405612 191.19670105 27.07443237 C191.20554067 31.09794008 191.20787939 35.12142652 191.20851684 39.144943 C191.20922833 41.66511553 191.21136473 44.18528268 191.21401405 46.70545387 C191.22327328 55.51718106 191.22734896 64.32889311 191.2265625 73.140625 C191.22596427 81.31899803 191.23646429 89.49730455 191.25230616 97.67566079 C191.26545648 104.71883948 191.27074315 111.76199667 191.27010709 118.80518752 C191.26985393 123.00145764 191.27260231 127.19766887 191.28328514 131.39392662 C191.29309073 135.3543124 191.29296167 139.31458463 191.28576851 143.27497482 C191.28473733 144.71430315 191.28699605 146.15363901 191.29312897 147.59295464 C191.3463512 160.97049385 190.93813979 175.08750859 186.29125977 187.77905273 C185.89656494 188.90053711 185.89656494 188.90053711 185.49389648 190.04467773 C177.21556347 212.84337449 159.86406034 230.06714749 138.16870117 240.31469727 C111.65264687 252.25694362 78.54636976 253.613465 51.13110352 243.68530273 C25.77058123 233.16918224 7.21728169 216.75860993 -3.95874023 191.40405273 C-6.65609881 184.56851049 -8.20604133 177.77019699 -9.04803467 170.47955322 C-9.13369934 169.73839366 -9.21936401 168.9972341 -9.30762458 168.23361516 C-10.12456792 160.66151612 -10.24125176 153.11998972 -10.2175293 145.50854492 C-10.22024981 144.00677828 -10.2238166 142.50501298 -10.22814941 141.00325012 C-10.23714046 136.98541988 -10.23378766 132.96769417 -10.22739124 128.94986248 C-10.22227268 124.72285907 -10.22703772 120.49586368 -10.23016357 116.26885986 C-10.23378157 109.18841973 -10.22905645 102.10802162 -10.21948242 95.02758789 C-10.20855141 86.84926673 -10.21216566 78.67104494 -10.22313523 70.49272609 C-10.23220997 63.44352263 -10.23349399 56.39434906 -10.22825789 49.34514165 C-10.2251457 45.14610108 -10.22470922 40.9471073 -10.23133087 36.74806976 C-10.2371082 32.81134047 -10.23310047 28.87473991 -10.22154236 24.93802452 C-10.21890002 23.49526114 -10.21965361 22.05248691 -10.22406769 20.60972786 C-10.22953979 18.63962315 -10.22145831 16.66949473 -10.21270752 14.69940186 C-10.21195347 13.59781612 -10.21119942 12.49623039 -10.21042252 11.36126328 C-9.88690272 7.55997801 -8.90421625 4.68899396 -6.6436615 1.61680603 C-4.35313087 -0.03184583 -2.80945983 0.01710781 0 0 Z " fill="#D2AE6D" transform="translate(1183.958740234375,106.595947265625)"/>
<path d="M0 0 C1.0447348 -0.0127597 2.0894696 -0.02551941 3.16586304 -0.03866577 C4.29400421 -0.04089142 5.42214539 -0.04311707 6.58447266 -0.04541016 C8.32490341 -0.05539536 8.32490341 -0.05539536 10.10049438 -0.06558228 C12.5567262 -0.07571451 15.01298558 -0.08039912 17.46923828 -0.08007812 C21.22686174 -0.08444745 24.98330739 -0.12075265 28.74072266 -0.15869141 C31.1261353 -0.16456015 33.51155353 -0.16852916 35.89697266 -0.17041016 C37.02106537 -0.18478119 38.14515808 -0.19915222 39.30331421 -0.21395874 C46.9915743 -0.16894818 46.9915743 -0.16894818 50.95288086 1.89477539 C53.3285604 4.85810873 54.38570477 7.47151369 55.58056641 11.08349609 C55.81856964 11.78809464 56.05657288 12.49269318 56.30178833 13.21864319 C57.11256155 15.63340592 57.89900286 18.05543128 58.68603516 20.47802734 C59.27463193 22.24832632 59.86461151 24.01816601 60.45581055 25.78759766 C62.20460219 31.03979205 63.92947562 36.29962449 65.65124512 41.56072998 C66.97276119 45.5933139 68.29975648 49.62406305 69.62841797 53.65429688 C69.86843253 54.38240161 70.10844709 55.11050634 70.35573483 55.86067486 C70.85163306 57.36501841 71.34753582 58.86936047 71.84344292 60.3737011 C75.22098501 70.62135137 78.59311089 80.8707681 81.9543457 91.1237793 C82.2116682 91.90868209 82.46899069 92.69358488 82.73411083 93.50227261 C82.9902028 94.28342465 83.24629477 95.0645767 83.51014709 95.86940002 C89.59625037 114.43324181 95.73469067 132.97870126 101.96080017 151.49615479 C102.25426834 152.3744696 102.54773651 153.25278442 102.85009766 154.15771484 C103.06846157 154.81104986 103.28682549 155.46438488 103.51180649 156.13751793 C105.4169597 161.86186641 107.25314706 167.60605518 109.0625 173.36132812 C109.33503098 174.22633438 109.60756195 175.09134064 109.88835144 175.9825592 C110.55066934 178.08503029 111.21238912 180.18768752 111.87353516 182.29052734 C122.32299696 151.97034076 132.44871097 121.54827167 142.47662354 91.08636475 C144.01293471 86.42036425 145.55050527 81.75477938 147.08834076 77.08928108 C147.85098588 74.77553165 148.61348401 72.46173376 149.3758316 70.14788628 C151.21847801 64.55599695 153.06361541 58.96495492 154.91442871 53.37576294 C159.14331594 40.6091151 159.14331594 40.6091151 163.24744797 27.80201054 C164.14643513 24.94739105 165.05808501 22.09689987 165.9709549 19.24669456 C166.55152424 17.41289113 167.11094144 15.57243152 167.66937256 13.73176575 C171.01780919 3.30531577 171.01780919 3.30531577 176.87353516 0.29052734 C180.82783334 -0.38256565 184.69020306 -0.38690268 188.69384766 -0.33837891 C189.83006561 -0.34079086 190.96628357 -0.34320282 192.13693237 -0.34568787 C194.53240458 -0.34471054 196.9278997 -0.33134462 199.32324219 -0.30639648 C202.99312776 -0.2720233 206.66061369 -0.28576194 210.33056641 -0.30517578 C212.66000375 -0.2982791 214.98943488 -0.28860833 217.31884766 -0.27587891 C218.41681671 -0.28083878 219.51478577 -0.28579865 220.64602661 -0.29090881 C221.66743744 -0.27507248 222.68884827 -0.25923615 223.74121094 -0.24291992 C225.08640305 -0.23362206 225.08640305 -0.23362206 226.45877075 -0.22413635 C229.68488866 0.46345278 230.90253514 1.68386016 232.87353516 4.29052734 C233.91065518 10.93936867 230.32290885 18.35407508 228.03369141 24.44287109 C227.6402655 25.51457047 227.2468396 26.58626984 226.8414917 27.69044495 C225.54872443 31.20638304 224.24224144 34.71706247 222.93603516 38.22802734 C222.02495694 40.70025417 221.11506161 43.1729172 220.20629883 45.64599609 C218.80787236 49.45144216 217.4089133 53.25668128 216.00544739 57.06027222 C211.87465836 68.25780264 207.81976053 79.48195871 203.78924561 90.71594238 C201.94244496 95.86287105 200.09144368 101.00828858 198.24072266 106.15380859 C197.87810333 107.16224823 197.51548401 108.17068787 197.14187622 109.20968628 C191.47338764 124.96954938 185.76841173 140.71623934 180.06713867 156.46426392 C177.12631423 164.58874276 174.1919366 172.71554195 171.25856018 180.8427124 C168.4125587 188.72591047 165.55741859 196.60576912 162.69822693 204.48419189 C160.94635301 209.31536115 159.20643192 214.15042648 157.4853363 218.99264526 C156.78880513 220.94863156 156.08712722 222.90267349 155.38305664 224.85595703 C154.57980925 227.08617909 153.78540461 229.31961965 153.00268555 231.55712891 C151.00757897 237.04981256 149.07013173 241.16838652 144.87353516 245.29052734 C141.73617726 246.33631331 139.50566055 246.42968565 136.2121582 246.45166016 C135.05052658 246.4612677 133.88889496 246.47087524 132.69206238 246.48077393 C130.80769218 246.48714874 130.80769218 246.48714874 128.88525391 246.49365234 C126.94861626 246.50220245 126.94861626 246.50220245 124.97285461 246.51092529 C122.23832812 246.52142529 119.50383092 246.52727424 116.76928711 246.53076172 C113.27562728 246.53623926 109.7823586 246.5602551 106.28882122 246.58873367 C102.94597323 246.61190869 99.60317804 246.61381305 96.26025391 246.61865234 C95.0100798 246.63099915 93.7599057 246.64334595 92.47184753 246.65606689 C81.40964629 246.62771825 81.40964629 246.62771825 76.87353516 243.29052734 C74.34448641 240.33779473 73.03502164 237.48460353 71.73901367 233.83422852 C71.34253632 232.72858047 70.94605896 231.62293243 70.53756714 230.48377991 C69.9014299 228.67688942 69.9014299 228.67688942 69.25244141 226.83349609 C68.79671676 225.5553473 68.34033096 224.27743407 67.8833313 222.9997406 C66.90557888 220.26228358 65.93202244 217.52338531 64.96176147 214.78326416 C63.42155829 210.43404812 61.87188391 206.08824835 60.32006836 201.74316406 C59.92936865 200.64908234 59.92936865 200.64908234 59.53077602 199.53289795 C59.00192888 198.0519612 58.47306015 196.57103216 57.94417 195.09011078 C57.14306056 192.8459747 56.34284359 190.60152209 55.54283142 188.35699463 C50.60965089 174.52095081 45.59486203 160.71527265 40.56103516 146.91552734 C33.48889405 127.50939753 26.46399292 108.08683264 19.47900391 88.64916992 C15.71529406 78.17698705 11.94183594 67.70849811 8.14697266 57.24755859 C7.75984604 56.17984222 7.37271942 55.11212585 6.97386169 54.01205444 C5.13192975 48.93216324 3.28822361 43.85293065 1.44116211 38.77490234 C-0.14637208 34.40551981 -1.71965639 30.03127542 -3.28082275 25.65240479 C-3.83449097 24.10601007 -4.39286857 22.56129147 -4.95648193 21.01849365 C-5.70722152 18.96123014 -6.44056623 16.89859056 -7.16943359 14.83349609 C-7.57572998 13.70322998 -7.98202637 12.57296387 -8.40063477 11.40844727 C-9.21205179 7.92287484 -9.1467148 5.71237864 -8.12646484 2.29052734 C-4.8373126 0.09775918 -3.8227516 0.03168431 0 0 Z " fill="#D2AE6D" transform="translate(206.12646484375,106.70947265625)"/>
<path d="M0 0 C1.53707108 -0.01429802 1.53707108 -0.01429802 3.10519409 -0.02888489 C4.76459518 -0.02751778 4.76459518 -0.02751778 6.45751953 -0.02612305 C7.59561066 -0.03040817 8.73370178 -0.0346933 9.90628052 -0.03910828 C12.31544326 -0.04485514 14.72462336 -0.04534923 17.13378906 -0.04101562 C20.81882402 -0.03786021 24.50305289 -0.06129565 28.18798828 -0.08666992 C30.52783102 -0.08894333 32.86767591 -0.08964622 35.20751953 -0.08862305 C36.86084793 -0.10243767 36.86084793 -0.10243767 38.5475769 -0.11653137 C40.09410446 -0.10718819 40.09410446 -0.10718819 41.671875 -0.09765625 C42.57549774 -0.09828568 43.47912048 -0.0989151 44.41012573 -0.0995636 C47.62894236 0.37184701 49.40064495 1.27222821 51.96533203 3.2746582 C53.41401672 5.79519653 53.41401672 5.79519653 54.54077148 8.75561523 C55.16068466 10.36681244 55.16068466 10.36681244 55.79312134 12.01055908 C57.5288239 16.84373901 59.19096319 21.68891107 60.75830078 26.5793457 C61.10172012 27.63604462 61.44513947 28.69274353 61.79896545 29.78146362 C62.53664404 32.05256587 63.27217813 34.32436561 64.0057373 36.59680176 C65.9909159 42.74542612 67.9926024 48.88867861 69.99267578 55.0324707 C70.19805592 55.66400055 70.40343605 56.2955304 70.61503983 56.94619751 C75.07620567 70.66319659 79.63787796 84.34608002 84.21533203 98.0246582 C90.38129074 116.46197254 96.47255371 134.92159444 102.46435547 153.41625977 C102.99200134 155.04484808 103.51966985 156.67342905 104.04736328 158.30200195 C104.29509491 159.06670807 104.54282654 159.83141418 104.79806519 160.61929321 C107.14502318 167.85189136 109.54623175 175.06588764 111.96533203 182.2746582 C118.65291288 162.95329905 125.23542483 143.60365307 131.52783203 124.1496582 C138.12685533 103.75263378 144.88517758 83.40991931 151.68408203 63.07885742 C152.52913807 60.55167775 153.37418799 58.02449604 154.21923828 55.49731445 C154.62908966 54.27191956 155.03894104 53.04652466 155.46121216 51.78399658 C157.93158652 44.39097991 160.37902659 36.99088873 162.80517578 29.58325195 C163.62748363 27.08125666 164.45025067 24.57941282 165.27313232 22.0776062 C165.76986738 20.56183113 166.26395846 19.04518663 166.75518799 17.52761841 C167.41373946 15.49316784 168.08108644 13.46180918 168.75048828 11.4309082 C169.11021729 10.32553711 169.46994629 9.22016602 169.84057617 8.08129883 C170.93399341 5.35285849 171.97618498 3.42901889 173.96533203 1.2746582 C176.92757238 0.28724475 178.92294828 0.13129796 182.01586914 0.09765625 C183.04381088 0.08482101 184.07175262 0.07198578 185.13084412 0.0587616 C186.24024857 0.05137466 187.34965302 0.04398773 188.49267578 0.03637695 C190.20336998 0.02426933 190.20336998 0.02426933 191.94862366 0.01191711 C194.36197389 -0.00191755 196.77534364 -0.01264247 199.1887207 -0.02050781 C202.88481408 -0.03775771 206.58002161 -0.08165497 210.27587891 -0.12573242 C212.61897128 -0.13585609 214.96207126 -0.14437321 217.30517578 -0.15112305 C218.412556 -0.16863113 219.51993622 -0.18613922 220.66087341 -0.20417786 C221.69196732 -0.20125229 222.72306122 -0.19832672 223.78540039 -0.1953125 C225.14416542 -0.20411186 225.14416542 -0.20411186 226.53038025 -0.21308899 C229.77259892 0.4363625 230.97955534 1.67543863 232.96533203 4.2746582 C232.93795115 11.03495216 230.49517204 17.08159538 228.19580078 23.37231445 C227.61420448 24.99388962 227.61420448 24.99388962 227.02085876 26.64822388 C225.73951616 30.21414026 224.446287 33.77561927 223.15283203 37.3371582 C222.2438156 39.85881795 221.33542821 42.3806967 220.42773438 44.90283203 C217.84548681 52.07141071 215.2483399 59.23454098 212.64737701 66.39634705 C211.56894429 69.36628637 210.49160702 72.33662309 209.4140625 75.30688477 C206.15403054 84.28979807 202.88944329 93.27104366 199.6171875 102.24951172 C193.53792853 118.93080535 187.49795033 135.62596628 181.47895813 152.32907104 C180.55099535 154.90411778 179.62279649 157.4790794 178.69459724 160.05404091 C176.65943056 165.69991871 174.62456413 171.3459047 172.58984375 176.99194336 C172.15420105 178.20078186 171.71855835 179.40962036 171.26971436 180.65509033 C170.40529306 183.05379774 169.54091268 185.45251989 168.67657471 187.85125732 C166.26713611 194.53760293 163.85609057 201.22336435 161.44247437 207.90820312 C160.71854554 209.91415649 159.99523901 211.92033456 159.27261353 213.92675781 C158.28376647 216.67221159 157.29277407 219.416882 156.30126953 222.16137695 C156.01997696 222.94397385 155.73868439 223.72657074 155.4488678 224.53288269 C153.97608008 228.60206695 152.4558597 232.65140263 150.88574219 236.68408203 C150.56852203 237.5002449 150.25130188 238.31640778 149.92446899 239.15730286 C148.7143289 241.82876345 147.31900578 243.52838413 144.96533203 245.2746582 C141.82797414 246.32044417 139.59745742 246.41381651 136.30395508 246.43579102 C135.14232346 246.44539856 133.98069183 246.4550061 132.78385925 246.46490479 C130.89948906 246.4712796 130.89948906 246.4712796 128.97705078 246.4777832 C127.04041313 246.48633331 127.04041313 246.48633331 125.06465149 246.49505615 C122.33012499 246.50555614 119.5956278 246.5114051 116.86108398 246.51489258 C113.36742416 246.52037012 109.87415547 246.54438596 106.3806181 246.57286453 C103.0377701 246.59603955 99.69497492 246.59794391 96.35205078 246.6027832 C95.10187668 246.61513 93.85170258 246.62747681 92.56364441 246.64019775 C80.37734759 246.60896844 80.37734759 246.60896844 75.30371094 241.65087891 C73.25687687 238.01683367 71.93487735 234.18181635 70.55126953 230.25512695 C70.06136032 228.89155815 70.06136032 228.89155815 69.56155396 227.5004425 C68.48147705 224.48990845 67.41101724 221.47604377 66.34033203 218.4621582 C65.57999342 216.33819914 64.8189137 214.21450525 64.05712891 212.09106445 C62.47384389 207.67591074 60.89376689 203.25962849 59.31591797 198.8425293 C56.07430582 189.77530748 52.79411151 180.72210523 49.51373291 171.66885376 C47.74572773 166.78813222 45.98069189 161.90633703 44.21533203 157.0246582 C43.50701267 155.06631982 42.79867934 153.10798648 42.09033203 151.1496582 C40.67366536 147.23299154 39.2569987 143.31632487 37.84033203 139.3996582 C37.48972214 138.43032852 37.13911224 137.46099884 36.77787781 136.46229553 C36.0693827 134.50350776 35.36089678 132.54471666 34.65242004 130.58592224 C32.88413712 125.69701459 31.11569573 120.80816437 29.34692383 115.91943359 C26.12887686 107.02454102 22.91204437 98.12921806 19.70108032 89.23176575 C18.25200945 85.21672051 16.80208141 81.20198508 15.35205078 77.18728638 C14.63992106 75.21499052 13.92816544 73.24255954 13.21679688 71.26998901 C9.46928822 60.87967346 5.69234379 50.50228408 1.82080078 40.1574707 C1.16348026 38.39583803 0.50617204 36.63420076 -0.15112305 34.87255859 C-1.36897543 31.6101126 -2.59810743 28.35224071 -3.83422852 25.09667969 C-4.38059499 23.63661924 -4.92659647 22.17642214 -5.47216797 20.71606445 C-5.71920975 20.07553131 -5.96625153 19.43499817 -6.22077942 18.77505493 C-8.2059522 13.41419071 -9.88927557 7.83848099 -8.03466797 2.2746582 C-4.76160688 0.09261748 -3.79478923 0.019383 0 0 Z " fill="#D2AE6D" transform="translate(460.03466796875,106.725341796875)"/>
<path d="M0 0 C0.7633653 -0.00453111 1.52673061 -0.00906223 2.31322819 -0.01373065 C4.87888814 -0.02642162 7.4443371 -0.02475128 10.01002502 -0.02310181 C11.84632135 -0.02908408 13.68261516 -0.03588893 15.51890564 -0.04345703 C20.51265236 -0.06115373 25.50633058 -0.06581392 30.50010562 -0.0670886 C34.66529666 -0.0689855 38.83047167 -0.07634053 42.99565655 -0.08343279 C52.81995298 -0.0997279 62.64421273 -0.10460068 72.46852112 -0.10317993 C82.61203376 -0.10197783 92.75533385 -0.1230907 102.89879268 -0.15466726 C111.60034007 -0.18079257 120.30181788 -0.19154882 129.0034042 -0.19026911 C134.20369467 -0.18975842 139.40379627 -0.19550055 144.60404778 -0.21662521 C149.49358075 -0.2359449 154.38274348 -0.23617521 159.27228928 -0.22159195 C161.06861853 -0.21949501 162.86497058 -0.22425712 164.6612606 -0.23631287 C167.11022512 -0.2516868 169.55790037 -0.24251046 172.00683594 -0.22705078 C173.07770035 -0.24248147 173.07770035 -0.24248147 174.17019838 -0.25822389 C177.57133809 -0.21064691 179.28207292 0.04377617 181.99310684 2.17243671 C185.26409301 6.52665366 184.72731658 11.32326587 184.73487854 16.57601929 C184.73820694 17.37975479 184.74153534 18.1834903 184.7449646 19.01158142 C184.75001869 20.70859201 184.75237339 22.4056125 184.75221252 24.10263062 C184.75439907 26.69223462 184.77257079 29.28141246 184.79151917 31.87094116 C184.79445343 33.52263242 184.796438 35.17432569 184.79737854 36.82601929 C184.80456406 37.59699448 184.81174957 38.36796967 184.81915283 39.16230774 C184.79813508 44.13202643 184.35669098 47.84156621 181.37632751 51.88113403 C178.7386465 53.90200225 176.73844177 53.62773411 173.44313049 53.60800171 C172.18204971 53.60777512 170.92096893 53.60754852 169.62167358 53.60731506 C168.24534247 53.59199516 166.86901497 53.57634718 165.49269104 53.56039429 C164.08450777 53.55479813 162.67631865 53.55052813 161.26812744 53.54753113 C157.56409035 53.53608372 153.86040689 53.50661788 150.1565094 53.47341919 C146.37604048 53.4427158 142.59551436 53.42902524 138.81495667 53.41390991 C131.39877993 53.3817477 123.98289443 53.33055309 116.56690979 53.26742554 C116.56967517 54.21533525 116.57244055 55.16324497 116.57528973 56.13987923 C116.64187492 79.19975394 116.69118068 102.2596162 116.72234631 125.31956673 C116.73781818 136.47116639 116.75891389 147.62270256 116.79322815 158.77426147 C116.82312061 168.4934407 116.84248246 178.21257395 116.84917527 187.93179786 C116.85308777 193.07852296 116.86228948 198.22511651 116.88409996 203.37179947 C116.90446263 208.21608612 116.910744 213.06018703 116.90623283 217.90451241 C116.90705813 219.68226569 116.91302508 221.46002519 116.92452621 223.23774147 C116.939467 225.66624982 116.93585781 228.09405824 116.92767334 230.52258301 C116.93641186 231.22493139 116.94515039 231.92727978 116.95415372 232.65091145 C116.91241664 237.23729748 115.9738488 240.36942028 113.56690979 244.26742554 C109.1404863 247.18874934 103.57024603 246.57317698 98.44581604 246.56820679 C97.4682988 246.57249191 96.49078156 246.57677704 95.48364258 246.58119202 C93.42017897 246.58692457 91.35669515 246.58744351 89.29322815 246.58309937 C86.14386885 246.57994004 82.99544989 246.60341012 79.84620667 246.62875366 C77.8377443 246.63102689 75.82927943 246.63173004 73.82081604 246.63070679 C72.88314896 246.63991653 71.94548187 246.64912628 70.97940063 246.65861511 C65.80130307 246.62214362 61.96302065 246.32418076 57.56690979 243.26742554 C55.06809457 239.68088603 55.29199073 235.93101699 55.32640076 231.72512817 C55.32469191 230.96216974 55.32298306 230.1992113 55.32122242 229.41313291 C55.31792656 226.85502832 55.32893276 224.29718567 55.33985901 221.73910522 C55.3404231 219.90602627 55.3401066 218.07294686 55.338974 216.23986816 C55.33839941 211.2608855 55.3501709 206.28199891 55.36412191 201.3030386 C55.37661159 196.10068179 55.37779838 190.89832286 55.38017273 185.69595337 C55.38639268 175.8433432 55.40281048 165.99077734 55.42287171 156.13818669 C55.44521467 144.92186855 55.45622011 133.70554831 55.46626258 122.48921347 C55.48717625 99.41525958 55.52236226 76.34134504 55.56690979 53.26742554 C54.39633026 53.28074921 54.39633026 53.28074921 53.20210266 53.29434204 C45.84531159 53.37451229 38.4887325 53.43540184 31.1316185 53.47467422 C27.34927984 53.49554349 23.56730232 53.52384802 19.78517151 53.56918335 C16.13470667 53.61266627 12.48458903 53.63656762 8.83388519 53.64693451 C7.44159225 53.65432163 6.04931817 53.66874729 4.65717316 53.69034576 C2.70637568 53.71940595 0.75522833 53.72105966 -1.19578552 53.7215271 C-2.8612442 53.73485077 -2.8612442 53.73485077 -4.56034851 53.7484436 C-8.11442171 53.15334192 -9.25235437 52.08236917 -11.43309021 49.26742554 C-12.72987572 45.37706901 -12.59556832 41.67426026 -12.60105896 37.61898804 C-12.60438736 36.7694455 -12.60771576 35.91990295 -12.61114502 35.0446167 C-12.61620679 33.24747255 -12.61855358 31.450319 -12.61839294 29.65316772 C-12.62057635 26.90984516 -12.63873134 24.16692679 -12.65769958 21.42367554 C-12.66063431 19.67628108 -12.66261858 17.92888471 -12.66355896 16.18148804 C-12.67074448 15.36362823 -12.67792999 14.54576843 -12.68533325 13.703125 C-12.66851901 9.49086742 -12.56640774 6.02792491 -10.43309021 2.26742554 C-6.81328245 -0.14577963 -4.18169686 -0.01808524 0 0 Z " fill="#D2AE6D" transform="translate(1408.433090209961,106.73257446289063)"/>
<path d="M0 0 C0.98467255 -0.0159874 1.96934509 -0.03197479 2.9838562 -0.04844666 C4.04637604 -0.05380936 5.10889587 -0.05917206 6.20361328 -0.06469727 C7.84416183 -0.07823997 7.84416183 -0.07823997 9.51785278 -0.09205627 C11.8328375 -0.10657148 14.14786335 -0.11544865 16.46289062 -0.11914062 C20.0034708 -0.1310348 23.54230741 -0.18020882 27.08251953 -0.23071289 C29.33120894 -0.24017716 31.57990905 -0.24741217 33.82861328 -0.25219727 C34.88708466 -0.27172958 35.94555603 -0.2912619 37.03610229 -0.31138611 C38.02707916 -0.30530838 39.01805603 -0.29923065 40.0390625 -0.29296875 C41.34120193 -0.30057472 41.34120193 -0.30057472 42.66964722 -0.30833435 C46.35799273 0.60618157 47.7768717 2.37659097 50.14892578 5.30639648 C50.63202531 8.08269732 50.80671862 10.23976012 50.75019836 13.00691223 C50.75447049 13.77480865 50.75874261 14.54270506 50.7631442 15.33387107 C50.77137057 17.90318995 50.74389687 20.47087099 50.71655273 23.04003906 C50.71514218 24.88311728 50.71593439 26.72619832 50.71876526 28.5692749 C50.72020053 33.57113145 50.69079263 38.57238915 50.65589547 43.57410645 C50.62465056 48.80178944 50.6217027 54.02948597 50.61576843 59.25724792 C50.60022453 69.15597676 50.55918854 79.05442966 50.50902098 88.95303696 C50.45314463 100.22254885 50.42564529 111.49207387 50.40054381 122.76168978 C50.34827328 145.94341169 50.26032023 169.12488863 50.14892578 192.30639648 C51.99602142 192.29973465 51.99602142 192.29973465 53.88043213 192.29293823 C65.47549747 192.25242492 77.07054848 192.22242782 88.66566849 192.20277214 C94.62707719 192.19232733 100.58842883 192.17815533 106.54980469 192.15551758 C112.30100822 192.13381419 118.05215681 192.12183311 123.80339813 192.116642 C125.99947729 192.11294175 128.19555338 192.10571626 130.39160919 192.09493637 C133.46345052 192.08045485 136.53506372 192.07841716 139.60693359 192.0793457 C140.5182756 192.07215515 141.42961761 192.0649646 142.36857605 192.05755615 C143.62632591 192.06168015 143.62632591 192.06168015 144.90948486 192.06588745 C145.63585773 192.06404387 146.36223061 192.06220028 147.11061478 192.06030083 C149.53996881 192.3536091 151.08935203 192.98867865 153.14892578 194.30639648 C156.02495691 199.48374095 156.59605385 203.77086049 156.54736328 209.61889648 C156.55166855 210.77772339 156.55166855 210.77772339 156.55606079 211.95996094 C156.55809053 213.58358499 156.55263745 215.20723411 156.54003906 216.83081055 C156.52396873 219.29979731 156.53992395 221.76714744 156.55908203 224.23608398 C156.5570994 225.82202506 156.55325532 227.40796512 156.54736328 228.99389648 C156.55343597 229.72326416 156.55950867 230.45263184 156.56576538 231.20410156 C156.49734654 236.25150332 155.6874355 239.89642057 153.14892578 244.30639648 C149.35494582 246.32071932 146.10737077 246.55916593 141.85548401 246.5670929 C139.95237457 246.57772011 139.95237457 246.57772011 138.01081848 246.58856201 C136.61227381 246.58626839 135.21372948 246.58375872 133.81518555 246.58105469 C132.33651472 246.58540377 130.85784614 246.59058758 129.37918091 246.59654236 C125.36884601 246.60992221 121.35860541 246.61051218 117.34825253 246.60797906 C113.99833702 246.6069087 110.64844053 246.61179435 107.29852909 246.61658448 C99.39472429 246.62767606 91.49096702 246.62811897 83.5871582 246.62207031 C75.43747575 246.61602933 67.28796589 246.62834544 59.13831288 246.64964038 C52.13689117 246.66726129 45.13552437 246.67325699 38.1340813 246.67000264 C33.95436118 246.66819049 29.77476419 246.67081919 25.59506416 246.68471718 C21.66419274 246.69729898 17.73359025 246.69534822 13.80272293 246.68230629 C12.36199922 246.67994175 10.92125656 246.68267085 9.48055458 246.69092941 C7.51017832 246.70140784 5.53972534 246.69148748 3.5693512 246.68061829 C1.91709959 246.6808699 1.91709959 246.6808699 0.23146915 246.68112659 C-3.46733884 246.23148013 -5.76460743 245.40460376 -8.85107422 243.30639648 C-11.39368302 238.43796078 -11.13510028 233.29865342 -11.11177063 227.93151855 C-11.11559618 226.99549191 -11.11942172 226.05946527 -11.1233632 225.09507418 C-11.13367053 221.96298363 -11.12970534 218.83107718 -11.12573242 215.69897461 C-11.13008009 213.45169404 -11.13526343 211.20441495 -11.14122009 208.95713806 C-11.15461407 202.85602871 -11.1551884 196.75498128 -11.15265679 190.65386009 C-11.15158754 185.56168191 -11.15646918 180.46951629 -11.16126221 175.37734079 C-11.17299282 162.67945872 -11.17213148 149.9816215 -11.16570541 137.28373986 C-11.1605347 126.25947857 -11.17179661 115.2353056 -11.19080362 104.21106178 C-11.21017962 92.88584763 -11.21814709 81.56068746 -11.21468037 70.23545218 C-11.21286572 63.87935395 -11.21552208 57.52333665 -11.22939491 51.16725159 C-11.24194896 45.19184536 -11.24005203 39.21661628 -11.22698402 33.24121284 C-11.22461357 31.04742435 -11.22736965 28.85362348 -11.23560715 26.65984917 C-11.24603624 23.6667841 -11.2380046 20.67431774 -11.22529602 17.68127441 C-11.23267031 16.81181702 -11.24004459 15.94235963 -11.24764234 15.04655504 C-11.2031542 10.07122473 -10.66017194 6.59246606 -7.85107422 2.30639648 C-4.63046931 0.15932654 -3.71728501 0.04564465 0 0 Z " fill="#D2AE6D" transform="translate(998.85107421875,106.693603515625)"/>
<path d="M0 0 C18.15 0 36.3 0 55 0 C55.33 12.21 55.66 24.42 56 37 C73.56727841 37.06765987 91.13444604 37.12294836 108.70181847 37.15543652 C116.85822583 37.17092071 125.01454663 37.19203972 133.17089844 37.22631836 C140.27805755 37.25617338 147.38515399 37.2755637 154.49237406 37.28226548 C158.25735837 37.2861844 162.02216334 37.29542623 165.7870903 37.31719017 C169.98493229 37.34126094 174.18246038 37.34197252 178.38037109 37.34057617 C180.26310982 37.35675491 180.26310982 37.35675491 182.18388367 37.3732605 C183.32254379 37.36913651 184.46120392 37.36501251 185.6343689 37.36076355 C186.62806173 37.36352893 187.62175457 37.36629431 188.64555931 37.36914349 C189.42252474 37.24732614 190.19949017 37.12550879 191 37 C193.4374428 33.3438358 193.34710139 30.50636474 193.4140625 26.26953125 C193.44052856 25.27149475 193.44052856 25.27149475 193.4675293 24.2532959 C193.53048619 21.7732742 193.57674903 19.29285139 193.625 16.8125 C193.74875 11.264375 193.8725 5.71625 194 0 C212.15 0 230.3 0 249 0 C249.12032643 21.26212548 249.12032643 21.26212548 249.14648438 30.32617188 C249.16441699 36.51073936 249.18563029 42.69517358 249.22631836 48.87963867 C249.25891711 53.86576104 249.27685418 58.85174049 249.28463173 63.8379612 C249.29017429 65.7401638 249.30099755 67.64235859 249.31719017 69.54450035 C249.33897126 72.20911938 249.34196664 74.87314805 249.34057617 77.5378418 C249.351362 78.32402893 249.36214783 79.11021606 249.3732605 79.92022705 C249.34760538 84.46456546 248.85323577 87.41059873 246 91 C242.95185297 93.03209802 242.36551788 93.25073939 238.94350624 93.26006222 C238.11505184 93.26712781 237.28659744 93.2741934 236.43303835 93.2814731 C235.52303273 93.27905802 234.61302711 93.27664293 233.67544556 93.27415466 C232.7086082 93.27939134 231.74177085 93.28462802 230.74563539 93.29002339 C227.49135233 93.30507906 224.23722572 93.30572976 220.98291016 93.30639648 C218.65563184 93.31401419 216.32835606 93.32244101 214.00108337 93.33161926 C207.66847781 93.35360871 201.33592055 93.36236907 195.00328112 93.36744571 C191.0498233 93.37108385 187.09637823 93.37732104 183.14292526 93.3844471 C172.19854553 93.40390735 161.25417639 93.42041764 150.30977821 93.42332363 C149.25908717 93.42360499 149.25908717 93.42360499 148.18717005 93.42389202 C146.76714699 93.42425828 145.34712392 93.42462198 143.92710085 93.42498314 C143.22219273 93.42516595 142.5172846 93.42534876 141.79101562 93.42553711 C141.08524798 93.42571766 140.37948034 93.42589821 139.65232579 93.42608423 C128.21329131 93.42962678 116.77444497 93.45665395 105.33547576 93.494035 C93.59338768 93.53209982 81.85139301 93.55148097 70.10924184 93.55178314 C63.51552438 93.55257765 56.9220496 93.5613963 50.32838821 93.58978081 C44.12805368 93.61587432 37.92816454 93.61821517 31.72780037 93.60212517 C29.44973216 93.60030377 27.17163885 93.6070632 24.89362526 93.62294388 C21.7880578 93.64327692 18.68406742 93.63292711 15.57852173 93.61473083 C14.22020546 93.63453079 14.22020546 93.63453079 12.83444846 93.65473074 C8.31622878 93.59409195 6.58364239 93.47594771 2.96384239 90.52407932 C2.3157744 89.69113315 1.66770641 88.85818697 1 88 C0.67 87.67 0.34 87.34 0 87 C-0.09514592 84.29161914 -0.12554932 81.60881487 -0.11352539 78.90014648 C-0.11367142 78.05143982 -0.11381744 77.20273315 -0.1139679 76.32830811 C-0.11326848 73.50921109 -0.10547478 70.69017929 -0.09765625 67.87109375 C-0.09579217 65.92196183 -0.09436822 63.97282945 -0.09336853 62.0236969 C-0.08954255 56.88293168 -0.07971159 51.74219453 -0.06866455 46.60144043 C-0.05665796 40.43908518 -0.05204857 34.27672058 -0.04621124 28.11435699 C-0.03649987 18.74288512 -0.01734388 9.37147487 0 0 Z " fill="#4B95A8" transform="translate(711,0)"/>
<path d="M0 0 C20.79 0 41.58 0 63 0 C64.65 5.28 66.3 10.56 68 16 C71.15151967 23.21532135 74.86949343 29.04415107 80 35 C80.51046875 35.60585938 81.0209375 36.21171875 81.546875 36.8359375 C90.9880935 47.16519141 105.45722518 54.16298142 119.44091797 55.17700195 C141.02488876 55.69543034 159.42523038 52.8130975 175.81738281 37.46606445 C186.19297719 27.13048327 191.05483702 13.80807042 195 0 C215.46 0 235.92 0 257 0 C255.30200486 22.0739368 248.58446331 43.21471872 235 61 C234.09894531 62.22976563 234.09894531 62.22976563 233.1796875 63.484375 C211.89127266 91.45325475 181.88276198 106.11450083 147.70507812 111.52124023 C130.99019384 113.68109053 112.3657099 113.11732259 96 109 C95.19949219 108.80132324 94.39898438 108.60264648 93.57421875 108.39794922 C61.09399261 100.0720848 34.2790077 80.75513078 16.81787109 52.05712891 C12.19943747 44.21209222 8.43200663 36.22889702 5.625 27.5625 C5.39852783 26.87333496 5.17205566 26.18416992 4.9387207 25.47412109 C2.4110974 17.07910616 1.46314261 8.77885569 0 0 Z " fill="#4B95A8" transform="translate(705,244)"/>
<path d="M0 0 C1.47678223 -0.0236412 1.47678223 -0.0236412 2.98339844 -0.04776001 C4.0355957 -0.03763885 5.08779297 -0.0275177 6.171875 -0.01708984 C7.80817871 -0.02426529 7.80817871 -0.02426529 9.47753906 -0.03158569 C11.78061365 -0.03498347 14.08373655 -0.02578977 16.38671875 -0.00488281 C19.90994917 0.02188206 23.42999356 -0.00463736 26.953125 -0.03662109 C29.19271536 -0.03331698 31.43230374 -0.02691071 33.671875 -0.01708984 C35.2501709 -0.03227158 35.2501709 -0.03227158 36.86035156 -0.04776001 C37.84487305 -0.03199921 38.82939453 -0.0162384 39.84375 0 C41.13684082 0.00596695 41.13684082 0.00596695 42.45605469 0.01205444 C46.19222571 0.97407224 47.55547602 2.61481465 49.921875 5.64697266 C50.65315539 8.82442533 50.59274676 11.93166837 50.55006409 15.18080139 C50.55715847 16.14596961 50.56425286 17.11113783 50.57156223 18.10555357 C50.58917667 21.34250157 50.57101925 24.57825433 50.55297852 27.81518555 C50.55811595 30.13453214 50.5653959 32.45387484 50.57466125 34.77320862 C50.59320448 41.07477957 50.58021826 47.37592841 50.56057096 53.67748189 C50.54420944 60.26598573 50.55299378 66.85446232 50.55809021 73.44297791 C50.56353209 84.50689178 50.54682922 95.57064622 50.51879883 106.63452148 C50.48995482 118.01968401 50.48288099 129.40460587 50.49829102 140.78979492 C50.51683472 154.50898847 50.51512103 168.22800802 50.49607658 181.94720268 C50.48919466 187.18837898 50.49025025 192.42946587 50.49762154 197.67064095 C50.50526805 203.83898573 50.49321133 210.00698275 50.46577263 216.17526817 C50.45887089 218.44244987 50.45880985 220.70966395 50.46598816 222.97684479 C50.47464102 226.06499719 50.45879693 229.15206603 50.4365387 232.24012756 C50.44889985 233.59493031 50.44889985 233.59493031 50.46151072 234.97710282 C50.380799 241.01868594 50.380799 241.01868594 48.07720852 244.17240047 C44.84963716 246.38054455 42.24798813 246.77540078 38.43798828 246.80810547 C37.53339874 246.81771301 36.6288092 246.82732056 35.69680786 246.83721924 C34.72178314 246.84146912 33.74675842 246.84571899 32.7421875 246.85009766 C31.23481522 246.85864777 31.23481522 246.85864777 29.69699097 246.86737061 C27.57030286 246.87681843 25.44360013 246.88335372 23.31689453 246.88720703 C20.06647167 246.89691413 16.81668074 246.92794051 13.56640625 246.95947266 C11.50000375 246.96600271 9.43359674 246.97125317 7.3671875 246.97509766 C5.91072311 246.99361786 5.91072311 246.99361786 4.42483521 247.01251221 C-1.88903472 246.99171006 -5.48779202 246.23730563 -10.078125 241.64697266 C-10.28287506 238.56241988 -10.3604792 235.5669092 -10.35227966 232.4806366 C-10.36013468 231.03778753 -10.36013468 231.03778753 -10.36814839 229.56579 C-10.38322591 226.32222038 -10.38385524 223.07880742 -10.38452148 219.83520508 C-10.3921378 217.51792634 -10.40056437 215.20065015 -10.40974426 212.88337708 C-10.43174915 206.57343884 -10.44049628 200.26354908 -10.44557071 193.9535768 C-10.44920743 190.01469769 -10.45544392 186.07583141 -10.4625721 182.13695717 C-10.48203604 171.23465103 -10.49854368 160.33235798 -10.50144863 149.43003368 C-10.5016362 148.73200548 -10.50182377 148.03397728 -10.50201702 147.3147967 C-10.50238328 145.89967144 -10.50274698 144.48454617 -10.50310814 143.0694209 C-10.50329095 142.36693436 -10.50347376 141.66444783 -10.50366211 140.94067383 C-10.50384266 140.2373313 -10.50402321 139.53398877 -10.50420923 138.80933283 C-10.50775097 127.41226684 -10.53477148 116.01538979 -10.57216 104.61838933 C-10.61022557 92.92153023 -10.62916473 81.22477397 -10.62990814 69.52785188 C-10.63070271 62.95871137 -10.63952353 56.38981444 -10.66790581 49.82073021 C-10.69400055 43.64256938 -10.69633948 37.46485554 -10.68025017 31.28666496 C-10.67842879 29.01666035 -10.68518802 26.74663055 -10.70106888 24.47668076 C-10.72140263 21.38200559 -10.71105166 18.28891297 -10.69285583 15.19425964 C-10.7060558 14.29192429 -10.71925577 13.38958894 -10.73285574 12.45991009 C-10.67287861 8.00635818 -10.51833967 6.21139094 -7.69381809 2.58994961 C-4.81392748 0.45072269 -3.5370528 0.01632168 0 0 Z " fill="#D2AE6D" transform="translate(1628.078125,106.35302734375)"/>
</svg>
