<svg xmlns="http://www.w3.org/2000/svg" xml:space="preserve" width="210mm" height="297mm" style="shape-rendering:geometricPrecision;text-rendering:geometricPrecision;image-rendering:optimizeQuality;fill-rule:evenodd;clip-rule:evenodd" viewBox="0 0 21000 29700"><defs><linearGradient id="id0" x1="3.745%" x2="84.349%" y1="49.787%" y2="49.786%" gradientUnits="objectBoundingBox"><stop offset="0" style="stop-opacity:1;stop-color:#f59632"/><stop offset="1" style="stop-opacity:1;stop-color:#ee3c37"/></linearGradient><linearGradient id="id1" x1="41.962%" x2="41.962%" y1="0%" y2="100.565%" gradientUnits="objectBoundingBox"><stop offset="0" style="stop-opacity:1;stop-color:#2fb45b"/><stop offset="1" style="stop-opacity:1;stop-color:#348c51"/></linearGradient><style>.fil3{fill:#e31e24}.fil6{fill:#c3d3fa}.fil7{fill:#e1e8ff}.fil8{fill:url(#id0)}.fil2{fill:url(#id1)}</style></defs><g id="Layer_x0020_1"><g id="_1913131262944"><path d="M6218.13 8028.08c91.17 127.56 212.41 215.92 320.98 357.87 97.66 127.69 197.62 266.28 273.65 419.73 278.4 55.9 927.56 150.64 1156.36 38.89 257.5-125.77 145.04-106.02 519.69-104.5 226.28.92 453.75 1.88 679.94-1.45 2.79-122.36-15.53-267.2 31.23-351.47 90.41-373.3 614.34-140.63 1299.06-186.58-13.28-200.54-87.77-751.81-57.46-902.79 54.35-270.71 379.29-358.24 681.53-285.87 241.68 57.87 494.11 235.54 572.98 413.65 134.58 303.93 8.19 561.9-89.95 822.74 1082.03 25.65 1214.88-60.05 1239.57 476.82 208.73 34.98 439.21 14.08 654.26 13.98 393.27-.18 332 115.46 561.58 139.22 274.04 28.37 1159.79-65.25 1326 32.35 583.93 24.37 754.59 557.01 777.65 1052.21 81.76 1755.91 216.44 3552.91 270.03 5300.71l32.2 240.67 905.55-249.01c171.81-58.95 111.66-80.41 252.98-131.43 471.2 130.96 506.43 1810.73 485.79 2407.02 56.43 68.74 83.72 103.4 121.75 186.71l62.33 153.67c33.66 68.36 14.93 37.26 44.88 77.29-10.69-195.81 132.59-452.69 204.25-647.98 79.09-215.52 139.5-426.14 200.02-649.08 123.07-453.35 199-915.26 251.2-1398.08 105.69-977.63 27.47-2113.46-213.27-3024.86-416.81-1577.95-1351.95-3106.96-2598.01-4034.1-2632.92-1959.01-5938.55-2392.44-8906.96-781.05-165.89 90.06-929.6 592.04-1059.81 614.72z" style="fill:#e5edfd"/><path d="M3257.35 11778.13c220.74 66.99 783.78 1.97 1069.87 22.99 223.66 16.44 675.45 61.98 827.13 257.92l89.34-8.28c92.21-192.27 84.69-270.55 355.73-261.76 35-566.83 4.98-1216.69 4.94-1790.95-.04-537.47 286.49-977 731.22-1059.54 159.13-165.16 168.07-166.12 477.18-132.83-76.03-153.45-175.99-292.04-273.65-419.73-108.57-141.95-229.81-230.31-320.98-357.87-176.2-117.64-322.49-287.68-763.17-568.39-253.96-161.77-564.67-309.53-868.15-437.7-336.03-141.91-1696.34-631.36-2048.35-536.57-129.22 166.53-59.7 401.72-46.87 656.2l74.19 2258.13c20.9 909.88 244.49 1820.61 691.57 2378.38z" style="fill:#92b3f9"/><path d="M6412.65 14509.05c-611.29 76.33-501.78-38.95-647.48 459.99-35.68 122.2-96.9 286.55-90.12 418.17l435.97 115.53-96.71 188.56c-1.73 3.44-7.32 12.07-9.01 15.48l-23.41 48.19c-.51 1.94-2.31 46.62-1.61 93.39-296.18 9.41-125.28-5.43-313.78 112.87-168.92 106-156.47-11.53-235.45 160.51-32.38 163.66-84.73 240.47-80.55 410.2l663.22 11.65-184.25 842.91 29.08 2778.72c10.54 293.2-.75 203.84 65.88 406.61 5.21 15.87 98.55 1839.72 204.52 2049.83 195.37 387.39 1356.74 162.01 1574.07 297.39l-994.86 10.11 441.18 194.77c875.39 23.12 1832.66-28.22 2716.91-46.77 878.3-18.42 1763.39-35.33 2644.07-50.36 894.64-15.28 1787.42-34.71 2681.47-47.91 346.64-5.12 1009.9 38.28 1267.57-104.81 386.91-214.86 304.51-508.02 322.51-1029.99l-45.34-593.29c-185.71-79.54-559.81-173.57-777.01-205.6-67.26 240.2 33.92 558.11 23.02 808.71-15.06 346.45-228.3 327.1-544.18 338.34-492.76 17.55-1078.13 97.49-1574.47 91.01-656.16 322.04-1149.74 623.33-2092.64 657.67-442.61 16.12-832.03-29.62-1235.73-137.66-185.73-49.7-349.9-107.8-526.26-176.97-157.7-61.86-330.62-169.36-453.96-203.29-572.33 40.53-2537.22 33.58-2957.06-94-176.25-280.71-93.32-940.48-94.82-1358.22-1.73-482.13-3.82-964.25-5.39-1446.38-3.14-964.26-6.85-1928.52-8.49-2892.78 52.2-105.63 4.43-25.05 90.14-79.01 182.86-115.12 116.3-27.67 339.95-397.55 168.38-278.48 827.45-1477.02 855.73-1672.07l-89.8-29.05-71.71-7.33-339.22-10.14-85.78 225.27-802.48 36.85 26.28-189.55zm9461.9 1167.5 561.67-162.64-.99-250.32c-53.59-1747.8-188.27-3544.8-270.03-5300.71-23.06-495.2-193.72-1027.84-777.65-1052.21l-1392.4-4.69c19.5 61.84 28.09 83.34 45.86 152.68 7.59 29.6 13.54 60.08 22.19 88.22 28.08 91.26-2.9 28.15 34.98 87 1343.98 7.74 1413.12-302.49 1455.38 554.22 38.79 786.5 261.98 5511.13 320.99 5888.45zm-4625.36-7899.48c-138.64 261.64-557.52 90.17-416.57-227.22 119-267.99 586.65-90.02 416.57 227.22zm-2049.21 610.08c-1.89 96.78-18.81 258.1 29.87 349.5 100.78-44.35 31.85 15.2 68.51-83.58 9.26-24.96 12.98-107.08 21.39-148.96 57.43-286.07 496.99-247.15 617.43-222.97 236.83 47.56 72.44-14.44 173.67 90.64-466.35 1.11-720.5-138.11-719.98 362.31l3454.84-8.97c-24.69-536.87-157.54-451.17-1239.57-476.82 98.14-260.84 224.53-518.81 89.95-822.74-78.87-178.11-331.3-355.78-572.98-413.65-302.24-72.37-627.18 15.16-681.53 285.87-30.31 150.98 44.18 702.25 57.46 902.79-684.72 45.95-1208.65-186.72-1299.06 186.58zM5599.42 11789l139.14 108.66c138.06-52.54 132.9-131.79 333.94-108.54 31.75 58.87 84.13 150.29 90.57 259.16 11.49 194.6-48.95 143.94-104.42 285.72 86.98 180.99 170.73 356.97 214.04 553 64.49 291.86-51.63 361.18-338.39 381.11l-65.5 500.15 466.9 3.02c34.36-765.67-5.42-1620.62-10.35-2396.04-3.68-578.05-80.98-1948.51 10.23-2436.73-444.73 82.54-731.26 522.07-731.22 1059.54.04 574.26 30.06 1224.12-4.94 1790.95z" class="fil2"/><path d="M9199.98 8387.15c-46.76 84.27-28.44 229.11-31.23 351.47-226.19 3.33-453.66 2.37-679.94 1.45-374.65-1.52-262.19-21.27-519.69 104.5-228.8 111.75-877.96 17.01-1156.36-38.89-309.11-33.29-318.05-32.33-477.18 132.83-91.21 488.22-13.91 1858.68-10.23 2436.73 4.93 775.42 44.71 1630.37 10.35 2396.04l137.22-2.69c54.62-953.72-5.24-2092.64-12.12-3063.63-13.97-1973.95-218.2-1597.12 1393.21-1462.71 193.2 236.74-49.39 264.14 599.67 261.85 779.69-2.74 2015.35-27.78 2710.24 11.09 1126.76 63.03 2344.5 85.79 3466.92 5.66 800.08-57.12 678.77-74.7 734.94 1042.61 79.61 1583.57 148.37 3700.78 282.71 5166.22l226.06-53.13c-59.01-377.32-282.2-5101.95-320.99-5888.45-42.26-856.71-111.4-546.48-1455.38-554.22-37.88-58.85-6.9 4.26-34.98-87-8.65-28.14-14.6-58.62-22.19-88.22-17.77-69.34-26.36-90.84-45.86-152.68l1392.4 4.69c-166.21-97.6-1051.96-3.98-1326-32.35-229.58-23.76-168.31-139.4-561.58-139.22-215.05.1-445.53 21-654.26-13.98l-3454.84 8.97c-.52-500.42 253.63-361.2 719.98-362.31-101.23-105.08 63.16-43.08-173.67-90.64-120.44-24.18-560-63.1-617.43 222.97-8.41 41.88-12.13 124-21.39 148.96-36.66 98.78 32.27 39.23-68.51 83.58-48.68-91.4-31.76-252.72-29.87-349.5z" class="fil3"/><path d="m2664.07 12884.48 74.94 78.09c360.8 426.19 322.33 808.05 644.85 1259.9 143.61 201.2 278.69 263.85 309.45 386.98 100.47-82.68 140.89-159.15 232.61-248 88.93-86.14 171.53-160.58 281.5-247.97 145.76-115.82 573.97-237.38 832.13-217.88 85.26-198.65 179.67-629.32 300.2-797.36-447.96-390.33-385.43-144.03-510.53-330.33-85.21-117.15-6.38-129.1 24.73-195.67 91.09-194.89-123.86-473.83 300.4-513.2-151.68-195.94-603.47-241.48-827.13-257.92-286.09-21.02-849.13 44-1069.87-22.99-156.27 130.52-1045.41 97.53-1312.77 248.54-29.27 241.75 536.55 494.38 719.49 857.81z" style="fill:#bdd0f9"/><path d="M11249.19 7777.07c170.08-317.24-297.57-495.21-416.57-227.22-140.95 317.39 277.93 488.86 416.57 227.22z" style="fill:#e9effc"/><path d="M6472.92 13768.59c270.11-9.73 525.88-72.23 761.82-145.72 464.91-62.27 1171.65-591.32 1363.87-832.37 371.04-465.32 179.27-600.39 293.14-802.51 68.71-121.95 446.23-493.07 536.75-527.13-1.89 141.65-94.58 184.18-164.77 267.16 29.19 137.58 130.55 241.07 56.06 410.93-86.64 197.53-191.97 205.42-256.15 306.68-39.4 62.17-92.57 341.81-123.48 433.98-350.02 1043.64-1143.16 1432.64-1254.6 1574.34l89.8 29.05c-28.28 195.05-687.35 1393.59-855.73 1672.07-223.65 369.88-157.09 282.43-339.95 397.55-85.71 53.96-37.94-26.62-90.14 79.01 1.64 964.26 5.35 1928.52 8.49 2892.78 1.57 482.13 3.66 964.25 5.39 1446.38 1.5 417.74-81.43 1077.51 94.82 1358.22 419.84 127.58 2384.73 134.53 2957.06 94l-652.92-489.85c-224.19-182.84-351.54-334.62-546.35-581.87-1981.86-2515.31-389.35-6357.19 2959.8-6615.75 1355.65-104.66 2365.29 432.51 3239.43 1259.22l37.33 28.84 1055.9-293.92c-134.34-1465.44-203.1-3582.65-282.71-5166.22-56.17-1117.31 65.14-1099.73-734.94-1042.61-1122.42 80.13-2340.16 57.37-3466.92-5.66-694.89-38.87-1930.55-13.83-2710.24-11.09-649.06 2.29-406.47-25.11-599.67-261.85-1611.41-134.41-1407.18-511.24-1393.21 1462.71 6.88 970.99 66.74 2109.91 12.12 3063.63z" class="fil6"/><rect width="3282.38" height="305.65" x="7069.5" y="10387.76" class="fil7" rx="152.83" ry="152.83"/><rect width="3282.38" height="305.65" x="7069.5" y="11051.98" class="fil7" rx="152.83" ry="152.83"/><rect width="3282.38" height="305.65" x="7069.5" y="11716.19" class="fil7" rx="152.83" ry="152.83"/><rect width="3282.38" height="305.65" x="7069.5" y="12380.42" class="fil7" rx="152.83" ry="152.83"/><rect width="7680.03" height="305.65" x="7069.5" y="13044.64" class="fil7" rx="357.59" ry="152.83"/><rect width="7680.03" height="305.65" x="7069.5" y="13708.85" class="fil7" rx="357.59" ry="152.83"/><rect width="7653.84" height="305.65" x="7069.5" y="14373.08" class="fil7" rx="356.37" ry="152.83"/><rect width="2606.63" height="305.65" x="7745.25" y="15037.3" class="fil7" rx="121.37" ry="152.83"/><rect width="2606.63" height="305.65" x="7745.25" y="15701.51" class="fil7" rx="121.37" ry="152.83"/><path d="M9555.3 22423.01c123.34 33.93 296.26 141.43 453.96 203.29 176.36 69.17 340.53 127.27 526.26 176.97 403.7 108.04 793.12 153.78 1235.73 137.66 942.9-34.34 1436.48-335.63 2092.64-657.67 69.18-87.48 289.74-228.55 387.11-313.29 141.77-123.38 237.44-226.91 357.55-348.12 161.7-163.2 482.82-559.42 570.03-797.69-94.92-85.03-328.94-127.42-471.93-153.71-84.14-18.78-144.05-42.31-216.8-58.94-153.48-35.09-71.79-45.15-184.27 10.37-459.83 678.8-1167.51 1291.61-2315.27 1436.13-622.19 79.29-1011.01-60.07-1535.04-171.48 30.57-136.04 102.39-179.53 225.89-380.94l706.46-986.98c87.78-220.2 347.95-461.5 401.17-641.19-100.41-111.37-655.84-212.98-822.97-279.05-8.48 158.17-346.36 578.02-459.7 744.01-91.36 133.81-157.32 210.9-252.02 346.89-93.86 134.77-133.48 265.07-253.27 344.03-37.58 127.49-204.12 323.13-268.23 436.66-307.08-142.81-623.28-533.31-822.29-814.31-775.07-1094.33-695.89-2644.46 13.06-3660.75 875.13-1254.51 2504.3-1759.99 3969.14-1134.19 207.83 88.79 343.78 190.3 507.47 265.05-30.55 103.1-64.4 141.57-117.84 218.91 60.57 40.99-118.24 93.33 318.26-31.82 110.08-31.57 219.7-61.29 332.63-95.64 159.97-48.66 547.83-91.1 622.23-222.45-874.14-826.71-1883.78-1363.88-3239.43-1259.22-3349.15 258.56-4941.66 4100.44-2959.8 6615.75 194.81 247.25 322.16 399.03 546.35 581.87l652.92 489.85z" class="fil3"/><path d="M13282.14 16344.67c-74.8 86.67-81.01 88.55-223.17 127.47l-1990.9 547.65c-80.56 445.02-191.41 719.99-217.46 1233.98-24.36 480.81 28.41 889.03 115.21 1344.6 167.13 66.07 722.56 167.68 822.97 279.05 189.2 2.31 1586.53 409.21 1933.53 514.03l476.12 128.16c185.95 75.3 89.21-27.98 107.14 102.27 112.48-55.52 30.79-45.46 184.27-10.37 72.75 16.63 132.66 40.16 216.8 58.94 142.99 26.29 377.01 68.68 471.93 153.71 207.04 26.42 636.59 127.01 780.94 221.04 217.2 32.03 591.3 126.06 777.01 205.6l45.34 593.29-12.52-583.11c88.24 16.61 193.66 34.2 279.19 70.05 187.65 78.65 56.25 88.18 224.64 129.19 498.17 10.35 709.63-2183.79 778.66-2427.33-325.93 166.22-388.09 313.03-1031.85 119.01.41-382.19 22.86-1517.5 130.06-1832.4 434.88-107.06 710.82-18.04 961.7 211.34 20.64-596.29-14.59-2276.06-485.79-2407.02-141.32 51.02-81.17 72.48-252.98 131.43l-905.55 249.01-32.2-240.67.99 250.32-561.67 162.64-226.06 53.13-1055.9 293.92-37.33-28.84c-74.4 131.35-462.26 173.79-622.23 222.45-112.93 34.35-222.55 64.07-332.63 95.64-436.5 125.15-257.69 72.81-318.26 31.82z" class="fil8"/><path d="M10000.83 21033.3c-183.47-396.86-300.01-883.94-439.67-1308.99-191.12-581.62-384.68 171.63-403.34-1364.07-6.76-555.52 2.45-1172.53 384.34-1380.43 374.11-203.66 1109.06-58.38 1525.91 39.98l1990.9-547.65c142.16-38.92 148.37-40.8 223.17-127.47 53.44-77.34 87.29-115.81 117.84-218.91-163.69-74.75-299.64-176.26-507.47-265.05-1464.84-625.8-3094.01-120.32-3969.14 1134.19-708.95 1016.29-788.13 2566.42-13.06 3660.75 199.01 281 515.21 671.5 822.29 814.31 64.11-113.53 230.65-309.17 268.23-436.66zm1386.79-514.69c156.54 276.84 524.71 1186.27 602.69 1539.4 1147.76-144.52 1855.44-757.33 2315.27-1436.13-17.93-130.25 78.81-26.97-107.14-102.27l-476.12-128.16c-347-104.82-1744.33-511.72-1933.53-514.03-53.22 179.69-313.39 420.99-401.17 641.19z" class="fil6"/><path d="M18051.84 19032.89c108.91-143.42 182.88-227.98 246.55-459.15 66.47-241.34 13.28-418.31 42.32-625.23-29.95-40.03-11.22-8.93-44.88-77.29l-62.33-153.67c-38.03-83.31-65.32-117.97-121.75-186.71-250.88-229.38-526.82-318.4-961.7-211.34-107.2 314.9-129.65 1450.21-130.06 1832.4 643.76 194.02 705.92 47.21 1031.85-119.01z" style="fill:#0d056e"/><path d="M13863.89 22283.26c496.34 6.48 1081.71-73.46 1574.47-91.01 315.88-11.24 529.12 8.11 544.18-338.34 10.9-250.6-90.28-568.51-23.02-808.71-144.35-94.03-573.9-194.62-780.94-221.04-87.21 238.27-408.33 634.49-570.03 797.69-120.11 121.21-215.78 224.74-357.55 348.12-97.37 84.74-317.93 225.81-387.11 313.29z" style="fill:#bcd0fa"/><path d="M11990.31 22058.01c-77.98-353.13-446.15-1262.56-602.69-1539.4l-706.46 986.98c-123.5 201.41-195.32 244.9-225.89 380.94 524.03 111.41 912.85 250.77 1535.04 171.48zm-1989.48-1024.71c119.79-78.96 159.41-209.26 253.27-344.03 94.7-135.99 160.66-213.08 252.02-346.89 113.34-165.99 451.22-585.84 459.7-744.01-86.8-455.57-139.57-863.79-115.21-1344.6 26.05-513.99 136.9-788.96 217.46-1233.98-416.85-98.36-1151.8-243.64-1525.91-39.98-381.89 207.9-391.1 824.91-384.34 1380.43 18.66 1535.7 212.22 782.45 403.34 1364.07 139.66 425.05 256.2 912.13 439.67 1308.99z" style="fill:#130a7d"/><path d="M4390.48 21817.28c-111.61-1479.1-308.53-2783.36-101.13-4304.49l-34.67-508.35c-58.7-123.89-62.4-319.31-68-469.03-204.29-64.17-244.22-24.81-434.81-142.37-457.93-282.45-346.49-785.28-352.87-1222.37 22.16-204.82 196.59-412.94 294.31-561.22-30.76-123.13-165.84-185.78-309.45-386.98-322.52-451.85-284.05-833.71-644.85-1259.9l-74.94-78.09c-48.12 350.71-231.73 792.57-308.1 1177.61-411.37 2074.14-379.68 4297.66 681.14 6150.64 300.3 524.55 840.8 1269.75 1353.37 1604.55z" style="fill:#e8eefd"/><path d="m11899.52 11265.67-14.25 904.58c-84.37-64.5-91.1-91.14-140.38-219.04l-284.16-691.61-334.04 1.05-.56 255.7 1.91 1169.73 241.37 3.77-.07-972.4c37.15 47.84 47.12 60.43 84.89 140.84 367.88 783.18 168.04 844.45 669.76 831.46l2.03-1429.41-226.5 5.33zm1824.91-16.83-344.63 1436.95 248.57 10.59 109.75-360.71 364.56-.42 83.68 344.5 259.62 19.63-343.36-1442.1-378.19-8.44zm171.12 245.91 67.46 313.29 67.47 313.28h-269.86l67.46-313.29 67.47-313.28zm-1241.72 950.51v-940.58c29.84-21.19 62.21-32.8 96.04-32.8 149.03 0 269.84 225.24 269.84 503.09 0 277.85-120.81 503.09-269.84 503.09-33.83 0-66.2-11.61-96.04-32.8zm659.91-470.16c6.13-779.21-431.73-748.94-941.76-732.89l-3.56 1469.26c612.45 9.88 940.07-69.54 945.32-736.37z" style="fill:#fefefe"/><path d="M4289.35 17512.79c-207.4 1521.13-10.48 2825.39 101.13 4304.49 59.65 234.55 65.48 536.58 145.7 742.18 187.72 34.46 328.98 73.12 351.31-141.26 51.64-495.82-23.91-2842.97 144.3-3264.79 50.38 159.23 101.33 828.26 143.74 1069.65l416.25 1982.82c12.34 200.39-24.94 350.02 47.95 552.19 45.19 125.33 79.55 114.63 114.82 203.39 30.72 77.31 29.84 155.11 63.48 223.02 177.01 68.77 1036.47 67.48 1295.15 58.28 49.17-63.68 64.6 95.03 36.16-118.83l-441.18-194.77 994.86-10.11c-217.33-135.38-1378.7 90-1574.07-297.39-105.97-210.11-199.31-2033.96-204.52-2049.83-66.63-202.77-55.34-113.41-65.88-406.61l-29.08-2778.72c-598.46 185.57-890.75 211.45-1540.12 126.29z" class="fil2"/><path d="m6472.92 13768.59-137.22 2.69-466.9-3.02c-5.06 6.29-11.69 15.58-14.81 19.16l-153.72 125.04c-249.15 129.93-447.88 60.73-660.72-16.86-258.16-19.5-686.37 102.06-832.13 217.88-109.97 87.39-192.57 161.83-281.5 247.97-91.72 88.85-132.14 165.32-232.61 248-97.72 148.28-272.15 356.4-294.31 561.22l-38.39 175.04c300.7 81.16 404.17 71.61 683.4 190.2 84.76-99.04 23.69-97.59 126.82-215.65l46 614.36c541.7 260.68 1151.19-89.57 1181.89-137.33 60.23-200.38 9.84-423.27 276.33-410.08-6.78-131.62 54.44-295.97 90.12-418.17 145.7-498.94 36.19-383.66 647.48-459.99 94.28-99.47 40.5-14.94 158.72-73.46 159.97-79.18-6.14-109.04 471.25-165.23 5.41 6.71 8.7 18.86 11.42 23.21 102.5 164.07 87.64 57.05 220.59 142.91l339.22 10.14c-160.19-297.68-280.96-404.33-379.11-823.75-235.94 73.49-491.71 135.99-761.82 145.72z" class="fil8"/><path d="m4254.68 17004.44 34.67 508.35c649.37 85.16 941.66 59.28 1540.12-126.29l184.25-842.91-663.22-11.65c-4.18-169.73 48.17-246.54 80.55-410.2-220.33 56.41-481.51 265.89-869.16 355.53-65.75 15.2-116.8 18.21-172.8 30.83l-156.48 53.28 22.07 443.06z" style="fill:#fe7062"/><path d="M7234.74 13622.87c98.15 419.42 218.92 526.07 379.11 823.75l71.71 7.33c111.44-141.7 904.58-530.7 1254.6-1574.34 30.91-92.17 84.08-371.81 123.48-433.98 64.18-101.26 169.51-109.15 256.15-306.68 74.49-169.86-26.87-273.35-56.06-410.93 70.19-82.98 162.88-125.51 164.77-267.16-90.52 34.06-468.04 405.18-536.75 527.13-113.87 202.12 77.9 337.19-293.14 802.51-192.22 241.05-898.96 770.1-1363.87 832.37z" style="fill:#feadab"/><path d="m4254.68 17004.44-22.07-443.06 156.48-53.28c56-12.62 107.05-15.63 172.8-30.83 387.65-89.64 648.83-299.12 869.16-355.53 78.98-172.04 66.53-54.51 235.45-160.51 188.5-118.3 17.6-103.46 313.78-112.87-.7-46.77 1.1-91.45 1.61-93.39l23.41-48.19c1.69-3.41 7.28-12.04 9.01-15.48l96.71-188.56-435.97-115.53c-266.49-13.19-216.1 209.7-276.33 410.08-30.7 47.76-640.19 398.01-1181.89 137.33l-46-614.36c-103.13 118.06-42.06 116.61-126.82 215.65-279.23-118.59-382.7-109.04-683.4-190.2l38.39-175.04c-95.9 322.13-105.06 939.92 352.87 1222.37 190.59 117.56 230.52 78.2 434.81 142.37 5.6 149.72 9.3 345.14 68 469.03z" style="fill:#fdb2ad"/><path d="M5339.75 13098.24c-120.53 168.04-214.94 598.71-300.2 797.36 212.84 77.59 411.57 146.79 660.72 16.86l153.72-125.04c3.12-3.58 9.75-12.87 14.81-19.16l65.5-500.15c286.76-19.93 402.88-89.25 338.39-381.11-43.31-196.03-127.06-372.01-214.04-553l-638.89 210.02 89.61 228.7-209.29 13.63c44.3 297.9 190.26-8.11 225.44 354.47l-185.77-42.58z" style="fill:#fda7a4"/><path d="M5599.42 11789c-271.04-8.79-263.52 69.49-355.73 261.76l-89.34 8.28c-424.26 39.37-209.31 318.31-300.4 513.2-31.11 66.57-109.94 78.52-24.73 195.67 125.1 186.3 62.57-60 510.53 330.33l185.77 42.58c-35.18-362.58-181.14-56.57-225.44-354.47l209.29-13.63-89.61-228.7 638.89-210.02c55.47-141.78 115.91-91.12 104.42-285.72-6.44-108.87-58.82-200.29-90.57-259.16-201.04-23.25-195.88 56-333.94 108.54L5599.42 11789z" style="fill:#ebecec"/><path d="m6412.65 14509.05-26.28 189.55 802.48-36.85 85.78-225.27c-132.95-85.86-118.09 21.16-220.59-142.91-2.72-4.35-6.01-16.5-11.42-23.21-477.39 56.19-311.28 86.05-471.25 165.23-118.22 58.52-64.44-26.01-158.72 73.46z" style="fill:#4244e4"/><path d="M4883.79 22772.85c-432.8-.05-252.15-119.13-341.04 33.15-56.48 96.75-87.14 301.54-73.3 421.38 72.32 22.92 179.94 40.95 280.77 45.75 349.25 16.62 324.12-116.53 133.57-500.28z" class="fil8"/></g></g></svg>